%TF.GenerationSoftware,KiCad,Pcbnew,7.0.8*%
%TF.CreationDate,2023-11-27T18:24:43-03:00*%
%TF.ProjectId,design,64657369-676e-42e6-9b69-6361645f7063,rev?*%
%TF.SameCoordinates,Original*%
%TF.FileFunction,Legend,Bot*%
%TF.FilePolarity,Positive*%
%FSLAX46Y46*%
G04 Gerber Fmt 4.6, Leading zero omitted, Abs format (unit mm)*
G04 Created by KiCad (PCBNEW 7.0.8) date 2023-11-27 18:24:43*
%MOMM*%
%LPD*%
G01*
G04 APERTURE LIST*
%ADD10C,0.150000*%
%ADD11C,0.152400*%
%ADD12C,0.120000*%
G04 APERTURE END LIST*
D10*
X158165704Y-88989819D02*
X158165704Y-89799342D01*
X158165704Y-89799342D02*
X158118085Y-89894580D01*
X158118085Y-89894580D02*
X158070466Y-89942200D01*
X158070466Y-89942200D02*
X157975228Y-89989819D01*
X157975228Y-89989819D02*
X157784752Y-89989819D01*
X157784752Y-89989819D02*
X157689514Y-89942200D01*
X157689514Y-89942200D02*
X157641895Y-89894580D01*
X157641895Y-89894580D02*
X157594276Y-89799342D01*
X157594276Y-89799342D02*
X157594276Y-88989819D01*
X157213323Y-88989819D02*
X156594276Y-88989819D01*
X156594276Y-88989819D02*
X156927609Y-89370771D01*
X156927609Y-89370771D02*
X156784752Y-89370771D01*
X156784752Y-89370771D02*
X156689514Y-89418390D01*
X156689514Y-89418390D02*
X156641895Y-89466009D01*
X156641895Y-89466009D02*
X156594276Y-89561247D01*
X156594276Y-89561247D02*
X156594276Y-89799342D01*
X156594276Y-89799342D02*
X156641895Y-89894580D01*
X156641895Y-89894580D02*
X156689514Y-89942200D01*
X156689514Y-89942200D02*
X156784752Y-89989819D01*
X156784752Y-89989819D02*
X157070466Y-89989819D01*
X157070466Y-89989819D02*
X157165704Y-89942200D01*
X157165704Y-89942200D02*
X157213323Y-89894580D01*
X160121599Y-85383019D02*
X160121599Y-85621114D01*
X160359694Y-85525876D02*
X160121599Y-85621114D01*
X160121599Y-85621114D02*
X159883504Y-85525876D01*
X160264456Y-85811590D02*
X160121599Y-85621114D01*
X160121599Y-85621114D02*
X159978742Y-85811590D01*
X160121599Y-85383019D02*
X160121599Y-85621114D01*
X160359694Y-85525876D02*
X160121599Y-85621114D01*
X160121599Y-85621114D02*
X159883504Y-85525876D01*
X160264456Y-85811590D02*
X160121599Y-85621114D01*
X160121599Y-85621114D02*
X159978742Y-85811590D01*
X139076904Y-84609819D02*
X139076904Y-85419342D01*
X139076904Y-85419342D02*
X139029285Y-85514580D01*
X139029285Y-85514580D02*
X138981666Y-85562200D01*
X138981666Y-85562200D02*
X138886428Y-85609819D01*
X138886428Y-85609819D02*
X138695952Y-85609819D01*
X138695952Y-85609819D02*
X138600714Y-85562200D01*
X138600714Y-85562200D02*
X138553095Y-85514580D01*
X138553095Y-85514580D02*
X138505476Y-85419342D01*
X138505476Y-85419342D02*
X138505476Y-84609819D01*
X137505476Y-85609819D02*
X138076904Y-85609819D01*
X137791190Y-85609819D02*
X137791190Y-84609819D01*
X137791190Y-84609819D02*
X137886428Y-84752676D01*
X137886428Y-84752676D02*
X137981666Y-84847914D01*
X137981666Y-84847914D02*
X138076904Y-84895533D01*
X132714580Y-88578333D02*
X132762200Y-88530714D01*
X132762200Y-88530714D02*
X132809819Y-88387857D01*
X132809819Y-88387857D02*
X132809819Y-88292619D01*
X132809819Y-88292619D02*
X132762200Y-88149762D01*
X132762200Y-88149762D02*
X132666961Y-88054524D01*
X132666961Y-88054524D02*
X132571723Y-88006905D01*
X132571723Y-88006905D02*
X132381247Y-87959286D01*
X132381247Y-87959286D02*
X132238390Y-87959286D01*
X132238390Y-87959286D02*
X132047914Y-88006905D01*
X132047914Y-88006905D02*
X131952676Y-88054524D01*
X131952676Y-88054524D02*
X131857438Y-88149762D01*
X131857438Y-88149762D02*
X131809819Y-88292619D01*
X131809819Y-88292619D02*
X131809819Y-88387857D01*
X131809819Y-88387857D02*
X131857438Y-88530714D01*
X131857438Y-88530714D02*
X131905057Y-88578333D01*
X132809819Y-89530714D02*
X132809819Y-88959286D01*
X132809819Y-89245000D02*
X131809819Y-89245000D01*
X131809819Y-89245000D02*
X131952676Y-89149762D01*
X131952676Y-89149762D02*
X132047914Y-89054524D01*
X132047914Y-89054524D02*
X132095533Y-88959286D01*
X165266666Y-93479580D02*
X165314285Y-93527200D01*
X165314285Y-93527200D02*
X165457142Y-93574819D01*
X165457142Y-93574819D02*
X165552380Y-93574819D01*
X165552380Y-93574819D02*
X165695237Y-93527200D01*
X165695237Y-93527200D02*
X165790475Y-93431961D01*
X165790475Y-93431961D02*
X165838094Y-93336723D01*
X165838094Y-93336723D02*
X165885713Y-93146247D01*
X165885713Y-93146247D02*
X165885713Y-93003390D01*
X165885713Y-93003390D02*
X165838094Y-92812914D01*
X165838094Y-92812914D02*
X165790475Y-92717676D01*
X165790475Y-92717676D02*
X165695237Y-92622438D01*
X165695237Y-92622438D02*
X165552380Y-92574819D01*
X165552380Y-92574819D02*
X165457142Y-92574819D01*
X165457142Y-92574819D02*
X165314285Y-92622438D01*
X165314285Y-92622438D02*
X165266666Y-92670057D01*
X164933332Y-92574819D02*
X164266666Y-92574819D01*
X164266666Y-92574819D02*
X164695237Y-93574819D01*
X136191904Y-93944819D02*
X136191904Y-94754342D01*
X136191904Y-94754342D02*
X136144285Y-94849580D01*
X136144285Y-94849580D02*
X136096666Y-94897200D01*
X136096666Y-94897200D02*
X136001428Y-94944819D01*
X136001428Y-94944819D02*
X135810952Y-94944819D01*
X135810952Y-94944819D02*
X135715714Y-94897200D01*
X135715714Y-94897200D02*
X135668095Y-94849580D01*
X135668095Y-94849580D02*
X135620476Y-94754342D01*
X135620476Y-94754342D02*
X135620476Y-93944819D01*
X135191904Y-94040057D02*
X135144285Y-93992438D01*
X135144285Y-93992438D02*
X135049047Y-93944819D01*
X135049047Y-93944819D02*
X134810952Y-93944819D01*
X134810952Y-93944819D02*
X134715714Y-93992438D01*
X134715714Y-93992438D02*
X134668095Y-94040057D01*
X134668095Y-94040057D02*
X134620476Y-94135295D01*
X134620476Y-94135295D02*
X134620476Y-94230533D01*
X134620476Y-94230533D02*
X134668095Y-94373390D01*
X134668095Y-94373390D02*
X135239523Y-94944819D01*
X135239523Y-94944819D02*
X134620476Y-94944819D01*
X150026666Y-87579580D02*
X150074285Y-87627200D01*
X150074285Y-87627200D02*
X150217142Y-87674819D01*
X150217142Y-87674819D02*
X150312380Y-87674819D01*
X150312380Y-87674819D02*
X150455237Y-87627200D01*
X150455237Y-87627200D02*
X150550475Y-87531961D01*
X150550475Y-87531961D02*
X150598094Y-87436723D01*
X150598094Y-87436723D02*
X150645713Y-87246247D01*
X150645713Y-87246247D02*
X150645713Y-87103390D01*
X150645713Y-87103390D02*
X150598094Y-86912914D01*
X150598094Y-86912914D02*
X150550475Y-86817676D01*
X150550475Y-86817676D02*
X150455237Y-86722438D01*
X150455237Y-86722438D02*
X150312380Y-86674819D01*
X150312380Y-86674819D02*
X150217142Y-86674819D01*
X150217142Y-86674819D02*
X150074285Y-86722438D01*
X150074285Y-86722438D02*
X150026666Y-86770057D01*
X149169523Y-86674819D02*
X149359999Y-86674819D01*
X149359999Y-86674819D02*
X149455237Y-86722438D01*
X149455237Y-86722438D02*
X149502856Y-86770057D01*
X149502856Y-86770057D02*
X149598094Y-86912914D01*
X149598094Y-86912914D02*
X149645713Y-87103390D01*
X149645713Y-87103390D02*
X149645713Y-87484342D01*
X149645713Y-87484342D02*
X149598094Y-87579580D01*
X149598094Y-87579580D02*
X149550475Y-87627200D01*
X149550475Y-87627200D02*
X149455237Y-87674819D01*
X149455237Y-87674819D02*
X149264761Y-87674819D01*
X149264761Y-87674819D02*
X149169523Y-87627200D01*
X149169523Y-87627200D02*
X149121904Y-87579580D01*
X149121904Y-87579580D02*
X149074285Y-87484342D01*
X149074285Y-87484342D02*
X149074285Y-87246247D01*
X149074285Y-87246247D02*
X149121904Y-87151009D01*
X149121904Y-87151009D02*
X149169523Y-87103390D01*
X149169523Y-87103390D02*
X149264761Y-87055771D01*
X149264761Y-87055771D02*
X149455237Y-87055771D01*
X149455237Y-87055771D02*
X149550475Y-87103390D01*
X149550475Y-87103390D02*
X149598094Y-87151009D01*
X149598094Y-87151009D02*
X149645713Y-87246247D01*
X164599580Y-86193333D02*
X164647200Y-86145714D01*
X164647200Y-86145714D02*
X164694819Y-86002857D01*
X164694819Y-86002857D02*
X164694819Y-85907619D01*
X164694819Y-85907619D02*
X164647200Y-85764762D01*
X164647200Y-85764762D02*
X164551961Y-85669524D01*
X164551961Y-85669524D02*
X164456723Y-85621905D01*
X164456723Y-85621905D02*
X164266247Y-85574286D01*
X164266247Y-85574286D02*
X164123390Y-85574286D01*
X164123390Y-85574286D02*
X163932914Y-85621905D01*
X163932914Y-85621905D02*
X163837676Y-85669524D01*
X163837676Y-85669524D02*
X163742438Y-85764762D01*
X163742438Y-85764762D02*
X163694819Y-85907619D01*
X163694819Y-85907619D02*
X163694819Y-86002857D01*
X163694819Y-86002857D02*
X163742438Y-86145714D01*
X163742438Y-86145714D02*
X163790057Y-86193333D01*
X163694819Y-87098095D02*
X163694819Y-86621905D01*
X163694819Y-86621905D02*
X164171009Y-86574286D01*
X164171009Y-86574286D02*
X164123390Y-86621905D01*
X164123390Y-86621905D02*
X164075771Y-86717143D01*
X164075771Y-86717143D02*
X164075771Y-86955238D01*
X164075771Y-86955238D02*
X164123390Y-87050476D01*
X164123390Y-87050476D02*
X164171009Y-87098095D01*
X164171009Y-87098095D02*
X164266247Y-87145714D01*
X164266247Y-87145714D02*
X164504342Y-87145714D01*
X164504342Y-87145714D02*
X164599580Y-87098095D01*
X164599580Y-87098095D02*
X164647200Y-87050476D01*
X164647200Y-87050476D02*
X164694819Y-86955238D01*
X164694819Y-86955238D02*
X164694819Y-86717143D01*
X164694819Y-86717143D02*
X164647200Y-86621905D01*
X164647200Y-86621905D02*
X164599580Y-86574286D01*
D11*
%TO.C,U3*%
X158777453Y-92036900D02*
X156030147Y-92036900D01*
X156030147Y-87033100D02*
X158777453Y-87033100D01*
X157099000Y-87033100D02*
G75*
G03*
X157708600Y-87033100I304800J0D01*
G01*
D12*
%TO.C,U1*%
X133490000Y-70765000D02*
X133490000Y-72575000D01*
X133490000Y-72575000D02*
X132390000Y-72575000D01*
X133490000Y-79355000D02*
X128365000Y-79355000D01*
X133490000Y-81165000D02*
X133490000Y-79355000D01*
X134990000Y-70765000D02*
X133490000Y-70765000D01*
X134990000Y-81165000D02*
X133490000Y-81165000D01*
%TO.C,C7*%
X164838748Y-90705000D02*
X165361252Y-90705000D01*
X164838748Y-92175000D02*
X165361252Y-92175000D01*
%TO.C,U2*%
X134265000Y-86975000D02*
X134265000Y-87245000D01*
X134265000Y-87245000D02*
X133165000Y-87245000D01*
X134265000Y-93605000D02*
X131435000Y-93605000D01*
X134265000Y-93875000D02*
X134265000Y-93605000D01*
X140685000Y-86975000D02*
X134265000Y-86975000D01*
X140685000Y-93875000D02*
X134265000Y-93875000D01*
%TO.C,C6*%
X150121252Y-89635000D02*
X149598748Y-89635000D01*
X150121252Y-88165000D02*
X149598748Y-88165000D01*
%TO.C,C5*%
X161825000Y-86621252D02*
X161825000Y-86098748D01*
X163295000Y-86621252D02*
X163295000Y-86098748D01*
%TD*%
M02*
