%TF.GenerationSoftware,KiCad,Pcbnew,7.0.8*%
%TF.CreationDate,2023-11-23T12:05:59-03:00*%
%TF.ProjectId,design,64657369-676e-42e6-9b69-6361645f7063,rev?*%
%TF.SameCoordinates,Original*%
%TF.FileFunction,Legend,Top*%
%TF.FilePolarity,Positive*%
%FSLAX46Y46*%
G04 Gerber Fmt 4.6, Leading zero omitted, Abs format (unit mm)*
G04 Created by KiCad (PCBNEW 7.0.8) date 2023-11-23 12:05:59*
%MOMM*%
%LPD*%
G01*
G04 APERTURE LIST*
%ADD10C,0.150000*%
%ADD11C,0.152400*%
%ADD12C,0.120000*%
G04 APERTURE END LIST*
D10*
X144018095Y-113754819D02*
X144018095Y-114564342D01*
X144018095Y-114564342D02*
X144065714Y-114659580D01*
X144065714Y-114659580D02*
X144113333Y-114707200D01*
X144113333Y-114707200D02*
X144208571Y-114754819D01*
X144208571Y-114754819D02*
X144399047Y-114754819D01*
X144399047Y-114754819D02*
X144494285Y-114707200D01*
X144494285Y-114707200D02*
X144541904Y-114659580D01*
X144541904Y-114659580D02*
X144589523Y-114564342D01*
X144589523Y-114564342D02*
X144589523Y-113754819D01*
X144970476Y-113754819D02*
X145589523Y-113754819D01*
X145589523Y-113754819D02*
X145256190Y-114135771D01*
X145256190Y-114135771D02*
X145399047Y-114135771D01*
X145399047Y-114135771D02*
X145494285Y-114183390D01*
X145494285Y-114183390D02*
X145541904Y-114231009D01*
X145541904Y-114231009D02*
X145589523Y-114326247D01*
X145589523Y-114326247D02*
X145589523Y-114564342D01*
X145589523Y-114564342D02*
X145541904Y-114659580D01*
X145541904Y-114659580D02*
X145494285Y-114707200D01*
X145494285Y-114707200D02*
X145399047Y-114754819D01*
X145399047Y-114754819D02*
X145113333Y-114754819D01*
X145113333Y-114754819D02*
X145018095Y-114707200D01*
X145018095Y-114707200D02*
X144970476Y-114659580D01*
X142062200Y-110148019D02*
X142062200Y-110386114D01*
X141824105Y-110290876D02*
X142062200Y-110386114D01*
X142062200Y-110386114D02*
X142300295Y-110290876D01*
X141919343Y-110576590D02*
X142062200Y-110386114D01*
X142062200Y-110386114D02*
X142205057Y-110576590D01*
X142062200Y-110148019D02*
X142062200Y-110386114D01*
X141824105Y-110290876D02*
X142062200Y-110386114D01*
X142062200Y-110386114D02*
X142300295Y-110290876D01*
X141919343Y-110576590D02*
X142062200Y-110386114D01*
X142062200Y-110386114D02*
X142205057Y-110576590D01*
X116633333Y-103929580D02*
X116585714Y-103977200D01*
X116585714Y-103977200D02*
X116442857Y-104024819D01*
X116442857Y-104024819D02*
X116347619Y-104024819D01*
X116347619Y-104024819D02*
X116204762Y-103977200D01*
X116204762Y-103977200D02*
X116109524Y-103881961D01*
X116109524Y-103881961D02*
X116061905Y-103786723D01*
X116061905Y-103786723D02*
X116014286Y-103596247D01*
X116014286Y-103596247D02*
X116014286Y-103453390D01*
X116014286Y-103453390D02*
X116061905Y-103262914D01*
X116061905Y-103262914D02*
X116109524Y-103167676D01*
X116109524Y-103167676D02*
X116204762Y-103072438D01*
X116204762Y-103072438D02*
X116347619Y-103024819D01*
X116347619Y-103024819D02*
X116442857Y-103024819D01*
X116442857Y-103024819D02*
X116585714Y-103072438D01*
X116585714Y-103072438D02*
X116633333Y-103120057D01*
X117490476Y-103358152D02*
X117490476Y-104024819D01*
X117252381Y-102977200D02*
X117014286Y-103691485D01*
X117014286Y-103691485D02*
X117633333Y-103691485D01*
X116633333Y-94379580D02*
X116585714Y-94427200D01*
X116585714Y-94427200D02*
X116442857Y-94474819D01*
X116442857Y-94474819D02*
X116347619Y-94474819D01*
X116347619Y-94474819D02*
X116204762Y-94427200D01*
X116204762Y-94427200D02*
X116109524Y-94331961D01*
X116109524Y-94331961D02*
X116061905Y-94236723D01*
X116061905Y-94236723D02*
X116014286Y-94046247D01*
X116014286Y-94046247D02*
X116014286Y-93903390D01*
X116014286Y-93903390D02*
X116061905Y-93712914D01*
X116061905Y-93712914D02*
X116109524Y-93617676D01*
X116109524Y-93617676D02*
X116204762Y-93522438D01*
X116204762Y-93522438D02*
X116347619Y-93474819D01*
X116347619Y-93474819D02*
X116442857Y-93474819D01*
X116442857Y-93474819D02*
X116585714Y-93522438D01*
X116585714Y-93522438D02*
X116633333Y-93570057D01*
X116966667Y-93474819D02*
X117585714Y-93474819D01*
X117585714Y-93474819D02*
X117252381Y-93855771D01*
X117252381Y-93855771D02*
X117395238Y-93855771D01*
X117395238Y-93855771D02*
X117490476Y-93903390D01*
X117490476Y-93903390D02*
X117538095Y-93951009D01*
X117538095Y-93951009D02*
X117585714Y-94046247D01*
X117585714Y-94046247D02*
X117585714Y-94284342D01*
X117585714Y-94284342D02*
X117538095Y-94379580D01*
X117538095Y-94379580D02*
X117490476Y-94427200D01*
X117490476Y-94427200D02*
X117395238Y-94474819D01*
X117395238Y-94474819D02*
X117109524Y-94474819D01*
X117109524Y-94474819D02*
X117014286Y-94427200D01*
X117014286Y-94427200D02*
X116966667Y-94379580D01*
X116633333Y-77209580D02*
X116585714Y-77257200D01*
X116585714Y-77257200D02*
X116442857Y-77304819D01*
X116442857Y-77304819D02*
X116347619Y-77304819D01*
X116347619Y-77304819D02*
X116204762Y-77257200D01*
X116204762Y-77257200D02*
X116109524Y-77161961D01*
X116109524Y-77161961D02*
X116061905Y-77066723D01*
X116061905Y-77066723D02*
X116014286Y-76876247D01*
X116014286Y-76876247D02*
X116014286Y-76733390D01*
X116014286Y-76733390D02*
X116061905Y-76542914D01*
X116061905Y-76542914D02*
X116109524Y-76447676D01*
X116109524Y-76447676D02*
X116204762Y-76352438D01*
X116204762Y-76352438D02*
X116347619Y-76304819D01*
X116347619Y-76304819D02*
X116442857Y-76304819D01*
X116442857Y-76304819D02*
X116585714Y-76352438D01*
X116585714Y-76352438D02*
X116633333Y-76400057D01*
X117585714Y-77304819D02*
X117014286Y-77304819D01*
X117300000Y-77304819D02*
X117300000Y-76304819D01*
X117300000Y-76304819D02*
X117204762Y-76447676D01*
X117204762Y-76447676D02*
X117109524Y-76542914D01*
X117109524Y-76542914D02*
X117014286Y-76590533D01*
X130167142Y-89974819D02*
X129833809Y-89498628D01*
X129595714Y-89974819D02*
X129595714Y-88974819D01*
X129595714Y-88974819D02*
X129976666Y-88974819D01*
X129976666Y-88974819D02*
X130071904Y-89022438D01*
X130071904Y-89022438D02*
X130119523Y-89070057D01*
X130119523Y-89070057D02*
X130167142Y-89165295D01*
X130167142Y-89165295D02*
X130167142Y-89308152D01*
X130167142Y-89308152D02*
X130119523Y-89403390D01*
X130119523Y-89403390D02*
X130071904Y-89451009D01*
X130071904Y-89451009D02*
X129976666Y-89498628D01*
X129976666Y-89498628D02*
X129595714Y-89498628D01*
X131119523Y-89974819D02*
X130548095Y-89974819D01*
X130833809Y-89974819D02*
X130833809Y-88974819D01*
X130833809Y-88974819D02*
X130738571Y-89117676D01*
X130738571Y-89117676D02*
X130643333Y-89212914D01*
X130643333Y-89212914D02*
X130548095Y-89260533D01*
X132071904Y-89974819D02*
X131500476Y-89974819D01*
X131786190Y-89974819D02*
X131786190Y-88974819D01*
X131786190Y-88974819D02*
X131690952Y-89117676D01*
X131690952Y-89117676D02*
X131595714Y-89212914D01*
X131595714Y-89212914D02*
X131500476Y-89260533D01*
X130167142Y-86824819D02*
X129833809Y-86348628D01*
X129595714Y-86824819D02*
X129595714Y-85824819D01*
X129595714Y-85824819D02*
X129976666Y-85824819D01*
X129976666Y-85824819D02*
X130071904Y-85872438D01*
X130071904Y-85872438D02*
X130119523Y-85920057D01*
X130119523Y-85920057D02*
X130167142Y-86015295D01*
X130167142Y-86015295D02*
X130167142Y-86158152D01*
X130167142Y-86158152D02*
X130119523Y-86253390D01*
X130119523Y-86253390D02*
X130071904Y-86301009D01*
X130071904Y-86301009D02*
X129976666Y-86348628D01*
X129976666Y-86348628D02*
X129595714Y-86348628D01*
X131119523Y-86824819D02*
X130548095Y-86824819D01*
X130833809Y-86824819D02*
X130833809Y-85824819D01*
X130833809Y-85824819D02*
X130738571Y-85967676D01*
X130738571Y-85967676D02*
X130643333Y-86062914D01*
X130643333Y-86062914D02*
X130548095Y-86110533D01*
X131738571Y-85824819D02*
X131833809Y-85824819D01*
X131833809Y-85824819D02*
X131929047Y-85872438D01*
X131929047Y-85872438D02*
X131976666Y-85920057D01*
X131976666Y-85920057D02*
X132024285Y-86015295D01*
X132024285Y-86015295D02*
X132071904Y-86205771D01*
X132071904Y-86205771D02*
X132071904Y-86443866D01*
X132071904Y-86443866D02*
X132024285Y-86634342D01*
X132024285Y-86634342D02*
X131976666Y-86729580D01*
X131976666Y-86729580D02*
X131929047Y-86777200D01*
X131929047Y-86777200D02*
X131833809Y-86824819D01*
X131833809Y-86824819D02*
X131738571Y-86824819D01*
X131738571Y-86824819D02*
X131643333Y-86777200D01*
X131643333Y-86777200D02*
X131595714Y-86729580D01*
X131595714Y-86729580D02*
X131548095Y-86634342D01*
X131548095Y-86634342D02*
X131500476Y-86443866D01*
X131500476Y-86443866D02*
X131500476Y-86205771D01*
X131500476Y-86205771D02*
X131548095Y-86015295D01*
X131548095Y-86015295D02*
X131595714Y-85920057D01*
X131595714Y-85920057D02*
X131643333Y-85872438D01*
X131643333Y-85872438D02*
X131738571Y-85824819D01*
X130643333Y-83674819D02*
X130310000Y-83198628D01*
X130071905Y-83674819D02*
X130071905Y-82674819D01*
X130071905Y-82674819D02*
X130452857Y-82674819D01*
X130452857Y-82674819D02*
X130548095Y-82722438D01*
X130548095Y-82722438D02*
X130595714Y-82770057D01*
X130595714Y-82770057D02*
X130643333Y-82865295D01*
X130643333Y-82865295D02*
X130643333Y-83008152D01*
X130643333Y-83008152D02*
X130595714Y-83103390D01*
X130595714Y-83103390D02*
X130548095Y-83151009D01*
X130548095Y-83151009D02*
X130452857Y-83198628D01*
X130452857Y-83198628D02*
X130071905Y-83198628D01*
X131119524Y-83674819D02*
X131310000Y-83674819D01*
X131310000Y-83674819D02*
X131405238Y-83627200D01*
X131405238Y-83627200D02*
X131452857Y-83579580D01*
X131452857Y-83579580D02*
X131548095Y-83436723D01*
X131548095Y-83436723D02*
X131595714Y-83246247D01*
X131595714Y-83246247D02*
X131595714Y-82865295D01*
X131595714Y-82865295D02*
X131548095Y-82770057D01*
X131548095Y-82770057D02*
X131500476Y-82722438D01*
X131500476Y-82722438D02*
X131405238Y-82674819D01*
X131405238Y-82674819D02*
X131214762Y-82674819D01*
X131214762Y-82674819D02*
X131119524Y-82722438D01*
X131119524Y-82722438D02*
X131071905Y-82770057D01*
X131071905Y-82770057D02*
X131024286Y-82865295D01*
X131024286Y-82865295D02*
X131024286Y-83103390D01*
X131024286Y-83103390D02*
X131071905Y-83198628D01*
X131071905Y-83198628D02*
X131119524Y-83246247D01*
X131119524Y-83246247D02*
X131214762Y-83293866D01*
X131214762Y-83293866D02*
X131405238Y-83293866D01*
X131405238Y-83293866D02*
X131500476Y-83246247D01*
X131500476Y-83246247D02*
X131548095Y-83198628D01*
X131548095Y-83198628D02*
X131595714Y-83103390D01*
X130643333Y-80524819D02*
X130310000Y-80048628D01*
X130071905Y-80524819D02*
X130071905Y-79524819D01*
X130071905Y-79524819D02*
X130452857Y-79524819D01*
X130452857Y-79524819D02*
X130548095Y-79572438D01*
X130548095Y-79572438D02*
X130595714Y-79620057D01*
X130595714Y-79620057D02*
X130643333Y-79715295D01*
X130643333Y-79715295D02*
X130643333Y-79858152D01*
X130643333Y-79858152D02*
X130595714Y-79953390D01*
X130595714Y-79953390D02*
X130548095Y-80001009D01*
X130548095Y-80001009D02*
X130452857Y-80048628D01*
X130452857Y-80048628D02*
X130071905Y-80048628D01*
X131214762Y-79953390D02*
X131119524Y-79905771D01*
X131119524Y-79905771D02*
X131071905Y-79858152D01*
X131071905Y-79858152D02*
X131024286Y-79762914D01*
X131024286Y-79762914D02*
X131024286Y-79715295D01*
X131024286Y-79715295D02*
X131071905Y-79620057D01*
X131071905Y-79620057D02*
X131119524Y-79572438D01*
X131119524Y-79572438D02*
X131214762Y-79524819D01*
X131214762Y-79524819D02*
X131405238Y-79524819D01*
X131405238Y-79524819D02*
X131500476Y-79572438D01*
X131500476Y-79572438D02*
X131548095Y-79620057D01*
X131548095Y-79620057D02*
X131595714Y-79715295D01*
X131595714Y-79715295D02*
X131595714Y-79762914D01*
X131595714Y-79762914D02*
X131548095Y-79858152D01*
X131548095Y-79858152D02*
X131500476Y-79905771D01*
X131500476Y-79905771D02*
X131405238Y-79953390D01*
X131405238Y-79953390D02*
X131214762Y-79953390D01*
X131214762Y-79953390D02*
X131119524Y-80001009D01*
X131119524Y-80001009D02*
X131071905Y-80048628D01*
X131071905Y-80048628D02*
X131024286Y-80143866D01*
X131024286Y-80143866D02*
X131024286Y-80334342D01*
X131024286Y-80334342D02*
X131071905Y-80429580D01*
X131071905Y-80429580D02*
X131119524Y-80477200D01*
X131119524Y-80477200D02*
X131214762Y-80524819D01*
X131214762Y-80524819D02*
X131405238Y-80524819D01*
X131405238Y-80524819D02*
X131500476Y-80477200D01*
X131500476Y-80477200D02*
X131548095Y-80429580D01*
X131548095Y-80429580D02*
X131595714Y-80334342D01*
X131595714Y-80334342D02*
X131595714Y-80143866D01*
X131595714Y-80143866D02*
X131548095Y-80048628D01*
X131548095Y-80048628D02*
X131500476Y-80001009D01*
X131500476Y-80001009D02*
X131405238Y-79953390D01*
X130643333Y-77374819D02*
X130310000Y-76898628D01*
X130071905Y-77374819D02*
X130071905Y-76374819D01*
X130071905Y-76374819D02*
X130452857Y-76374819D01*
X130452857Y-76374819D02*
X130548095Y-76422438D01*
X130548095Y-76422438D02*
X130595714Y-76470057D01*
X130595714Y-76470057D02*
X130643333Y-76565295D01*
X130643333Y-76565295D02*
X130643333Y-76708152D01*
X130643333Y-76708152D02*
X130595714Y-76803390D01*
X130595714Y-76803390D02*
X130548095Y-76851009D01*
X130548095Y-76851009D02*
X130452857Y-76898628D01*
X130452857Y-76898628D02*
X130071905Y-76898628D01*
X130976667Y-76374819D02*
X131643333Y-76374819D01*
X131643333Y-76374819D02*
X131214762Y-77374819D01*
X166365595Y-137084819D02*
X166365595Y-136084819D01*
X166365595Y-136561009D02*
X166937023Y-136561009D01*
X166937023Y-137084819D02*
X166937023Y-136084819D01*
X167841785Y-136418152D02*
X167841785Y-137084819D01*
X167603690Y-136037200D02*
X167365595Y-136751485D01*
X167365595Y-136751485D02*
X167984642Y-136751485D01*
X108458095Y-113824819D02*
X108458095Y-112824819D01*
X108458095Y-113301009D02*
X109029523Y-113301009D01*
X109029523Y-113824819D02*
X109029523Y-112824819D01*
X109410476Y-112824819D02*
X110029523Y-112824819D01*
X110029523Y-112824819D02*
X109696190Y-113205771D01*
X109696190Y-113205771D02*
X109839047Y-113205771D01*
X109839047Y-113205771D02*
X109934285Y-113253390D01*
X109934285Y-113253390D02*
X109981904Y-113301009D01*
X109981904Y-113301009D02*
X110029523Y-113396247D01*
X110029523Y-113396247D02*
X110029523Y-113634342D01*
X110029523Y-113634342D02*
X109981904Y-113729580D01*
X109981904Y-113729580D02*
X109934285Y-113777200D01*
X109934285Y-113777200D02*
X109839047Y-113824819D01*
X109839047Y-113824819D02*
X109553333Y-113824819D01*
X109553333Y-113824819D02*
X109458095Y-113777200D01*
X109458095Y-113777200D02*
X109410476Y-113729580D01*
X171958095Y-56914819D02*
X171958095Y-55914819D01*
X171958095Y-56391009D02*
X172529523Y-56391009D01*
X172529523Y-56914819D02*
X172529523Y-55914819D01*
X172958095Y-56010057D02*
X173005714Y-55962438D01*
X173005714Y-55962438D02*
X173100952Y-55914819D01*
X173100952Y-55914819D02*
X173339047Y-55914819D01*
X173339047Y-55914819D02*
X173434285Y-55962438D01*
X173434285Y-55962438D02*
X173481904Y-56010057D01*
X173481904Y-56010057D02*
X173529523Y-56105295D01*
X173529523Y-56105295D02*
X173529523Y-56200533D01*
X173529523Y-56200533D02*
X173481904Y-56343390D01*
X173481904Y-56343390D02*
X172910476Y-56914819D01*
X172910476Y-56914819D02*
X173529523Y-56914819D01*
X108458095Y-56914819D02*
X108458095Y-55914819D01*
X108458095Y-56391009D02*
X109029523Y-56391009D01*
X109029523Y-56914819D02*
X109029523Y-55914819D01*
X110029523Y-56914819D02*
X109458095Y-56914819D01*
X109743809Y-56914819D02*
X109743809Y-55914819D01*
X109743809Y-55914819D02*
X109648571Y-56057676D01*
X109648571Y-56057676D02*
X109553333Y-56152914D01*
X109553333Y-56152914D02*
X109458095Y-56200533D01*
X126260833Y-115519580D02*
X126213214Y-115567200D01*
X126213214Y-115567200D02*
X126070357Y-115614819D01*
X126070357Y-115614819D02*
X125975119Y-115614819D01*
X125975119Y-115614819D02*
X125832262Y-115567200D01*
X125832262Y-115567200D02*
X125737024Y-115471961D01*
X125737024Y-115471961D02*
X125689405Y-115376723D01*
X125689405Y-115376723D02*
X125641786Y-115186247D01*
X125641786Y-115186247D02*
X125641786Y-115043390D01*
X125641786Y-115043390D02*
X125689405Y-114852914D01*
X125689405Y-114852914D02*
X125737024Y-114757676D01*
X125737024Y-114757676D02*
X125832262Y-114662438D01*
X125832262Y-114662438D02*
X125975119Y-114614819D01*
X125975119Y-114614819D02*
X126070357Y-114614819D01*
X126070357Y-114614819D02*
X126213214Y-114662438D01*
X126213214Y-114662438D02*
X126260833Y-114710057D01*
X126594167Y-114614819D02*
X127260833Y-114614819D01*
X127260833Y-114614819D02*
X126832262Y-115614819D01*
X125795833Y-110439580D02*
X125748214Y-110487200D01*
X125748214Y-110487200D02*
X125605357Y-110534819D01*
X125605357Y-110534819D02*
X125510119Y-110534819D01*
X125510119Y-110534819D02*
X125367262Y-110487200D01*
X125367262Y-110487200D02*
X125272024Y-110391961D01*
X125272024Y-110391961D02*
X125224405Y-110296723D01*
X125224405Y-110296723D02*
X125176786Y-110106247D01*
X125176786Y-110106247D02*
X125176786Y-109963390D01*
X125176786Y-109963390D02*
X125224405Y-109772914D01*
X125224405Y-109772914D02*
X125272024Y-109677676D01*
X125272024Y-109677676D02*
X125367262Y-109582438D01*
X125367262Y-109582438D02*
X125510119Y-109534819D01*
X125510119Y-109534819D02*
X125605357Y-109534819D01*
X125605357Y-109534819D02*
X125748214Y-109582438D01*
X125748214Y-109582438D02*
X125795833Y-109630057D01*
X126652976Y-109534819D02*
X126462500Y-109534819D01*
X126462500Y-109534819D02*
X126367262Y-109582438D01*
X126367262Y-109582438D02*
X126319643Y-109630057D01*
X126319643Y-109630057D02*
X126224405Y-109772914D01*
X126224405Y-109772914D02*
X126176786Y-109963390D01*
X126176786Y-109963390D02*
X126176786Y-110344342D01*
X126176786Y-110344342D02*
X126224405Y-110439580D01*
X126224405Y-110439580D02*
X126272024Y-110487200D01*
X126272024Y-110487200D02*
X126367262Y-110534819D01*
X126367262Y-110534819D02*
X126557738Y-110534819D01*
X126557738Y-110534819D02*
X126652976Y-110487200D01*
X126652976Y-110487200D02*
X126700595Y-110439580D01*
X126700595Y-110439580D02*
X126748214Y-110344342D01*
X126748214Y-110344342D02*
X126748214Y-110106247D01*
X126748214Y-110106247D02*
X126700595Y-110011009D01*
X126700595Y-110011009D02*
X126652976Y-109963390D01*
X126652976Y-109963390D02*
X126557738Y-109915771D01*
X126557738Y-109915771D02*
X126367262Y-109915771D01*
X126367262Y-109915771D02*
X126272024Y-109963390D01*
X126272024Y-109963390D02*
X126224405Y-110011009D01*
X126224405Y-110011009D02*
X126176786Y-110106247D01*
X126833333Y-105359580D02*
X126785714Y-105407200D01*
X126785714Y-105407200D02*
X126642857Y-105454819D01*
X126642857Y-105454819D02*
X126547619Y-105454819D01*
X126547619Y-105454819D02*
X126404762Y-105407200D01*
X126404762Y-105407200D02*
X126309524Y-105311961D01*
X126309524Y-105311961D02*
X126261905Y-105216723D01*
X126261905Y-105216723D02*
X126214286Y-105026247D01*
X126214286Y-105026247D02*
X126214286Y-104883390D01*
X126214286Y-104883390D02*
X126261905Y-104692914D01*
X126261905Y-104692914D02*
X126309524Y-104597676D01*
X126309524Y-104597676D02*
X126404762Y-104502438D01*
X126404762Y-104502438D02*
X126547619Y-104454819D01*
X126547619Y-104454819D02*
X126642857Y-104454819D01*
X126642857Y-104454819D02*
X126785714Y-104502438D01*
X126785714Y-104502438D02*
X126833333Y-104550057D01*
X127738095Y-104454819D02*
X127261905Y-104454819D01*
X127261905Y-104454819D02*
X127214286Y-104931009D01*
X127214286Y-104931009D02*
X127261905Y-104883390D01*
X127261905Y-104883390D02*
X127357143Y-104835771D01*
X127357143Y-104835771D02*
X127595238Y-104835771D01*
X127595238Y-104835771D02*
X127690476Y-104883390D01*
X127690476Y-104883390D02*
X127738095Y-104931009D01*
X127738095Y-104931009D02*
X127785714Y-105026247D01*
X127785714Y-105026247D02*
X127785714Y-105264342D01*
X127785714Y-105264342D02*
X127738095Y-105359580D01*
X127738095Y-105359580D02*
X127690476Y-105407200D01*
X127690476Y-105407200D02*
X127595238Y-105454819D01*
X127595238Y-105454819D02*
X127357143Y-105454819D01*
X127357143Y-105454819D02*
X127261905Y-105407200D01*
X127261905Y-105407200D02*
X127214286Y-105359580D01*
X119870833Y-76479580D02*
X119823214Y-76527200D01*
X119823214Y-76527200D02*
X119680357Y-76574819D01*
X119680357Y-76574819D02*
X119585119Y-76574819D01*
X119585119Y-76574819D02*
X119442262Y-76527200D01*
X119442262Y-76527200D02*
X119347024Y-76431961D01*
X119347024Y-76431961D02*
X119299405Y-76336723D01*
X119299405Y-76336723D02*
X119251786Y-76146247D01*
X119251786Y-76146247D02*
X119251786Y-76003390D01*
X119251786Y-76003390D02*
X119299405Y-75812914D01*
X119299405Y-75812914D02*
X119347024Y-75717676D01*
X119347024Y-75717676D02*
X119442262Y-75622438D01*
X119442262Y-75622438D02*
X119585119Y-75574819D01*
X119585119Y-75574819D02*
X119680357Y-75574819D01*
X119680357Y-75574819D02*
X119823214Y-75622438D01*
X119823214Y-75622438D02*
X119870833Y-75670057D01*
X120251786Y-75670057D02*
X120299405Y-75622438D01*
X120299405Y-75622438D02*
X120394643Y-75574819D01*
X120394643Y-75574819D02*
X120632738Y-75574819D01*
X120632738Y-75574819D02*
X120727976Y-75622438D01*
X120727976Y-75622438D02*
X120775595Y-75670057D01*
X120775595Y-75670057D02*
X120823214Y-75765295D01*
X120823214Y-75765295D02*
X120823214Y-75860533D01*
X120823214Y-75860533D02*
X120775595Y-76003390D01*
X120775595Y-76003390D02*
X120204167Y-76574819D01*
X120204167Y-76574819D02*
X120823214Y-76574819D01*
X157733095Y-103299819D02*
X157733095Y-104109342D01*
X157733095Y-104109342D02*
X157780714Y-104204580D01*
X157780714Y-104204580D02*
X157828333Y-104252200D01*
X157828333Y-104252200D02*
X157923571Y-104299819D01*
X157923571Y-104299819D02*
X158114047Y-104299819D01*
X158114047Y-104299819D02*
X158209285Y-104252200D01*
X158209285Y-104252200D02*
X158256904Y-104204580D01*
X158256904Y-104204580D02*
X158304523Y-104109342D01*
X158304523Y-104109342D02*
X158304523Y-103299819D01*
X159209285Y-103633152D02*
X159209285Y-104299819D01*
X158971190Y-103252200D02*
X158733095Y-103966485D01*
X158733095Y-103966485D02*
X159352142Y-103966485D01*
X151153095Y-80849819D02*
X151153095Y-81659342D01*
X151153095Y-81659342D02*
X151200714Y-81754580D01*
X151200714Y-81754580D02*
X151248333Y-81802200D01*
X151248333Y-81802200D02*
X151343571Y-81849819D01*
X151343571Y-81849819D02*
X151534047Y-81849819D01*
X151534047Y-81849819D02*
X151629285Y-81802200D01*
X151629285Y-81802200D02*
X151676904Y-81754580D01*
X151676904Y-81754580D02*
X151724523Y-81659342D01*
X151724523Y-81659342D02*
X151724523Y-80849819D01*
X152153095Y-80945057D02*
X152200714Y-80897438D01*
X152200714Y-80897438D02*
X152295952Y-80849819D01*
X152295952Y-80849819D02*
X152534047Y-80849819D01*
X152534047Y-80849819D02*
X152629285Y-80897438D01*
X152629285Y-80897438D02*
X152676904Y-80945057D01*
X152676904Y-80945057D02*
X152724523Y-81040295D01*
X152724523Y-81040295D02*
X152724523Y-81135533D01*
X152724523Y-81135533D02*
X152676904Y-81278390D01*
X152676904Y-81278390D02*
X152105476Y-81849819D01*
X152105476Y-81849819D02*
X152724523Y-81849819D01*
X157758095Y-69004819D02*
X157758095Y-69814342D01*
X157758095Y-69814342D02*
X157805714Y-69909580D01*
X157805714Y-69909580D02*
X157853333Y-69957200D01*
X157853333Y-69957200D02*
X157948571Y-70004819D01*
X157948571Y-70004819D02*
X158139047Y-70004819D01*
X158139047Y-70004819D02*
X158234285Y-69957200D01*
X158234285Y-69957200D02*
X158281904Y-69909580D01*
X158281904Y-69909580D02*
X158329523Y-69814342D01*
X158329523Y-69814342D02*
X158329523Y-69004819D01*
X159329523Y-70004819D02*
X158758095Y-70004819D01*
X159043809Y-70004819D02*
X159043809Y-69004819D01*
X159043809Y-69004819D02*
X158948571Y-69147676D01*
X158948571Y-69147676D02*
X158853333Y-69242914D01*
X158853333Y-69242914D02*
X158758095Y-69290533D01*
X130643333Y-73514819D02*
X130310000Y-73038628D01*
X130071905Y-73514819D02*
X130071905Y-72514819D01*
X130071905Y-72514819D02*
X130452857Y-72514819D01*
X130452857Y-72514819D02*
X130548095Y-72562438D01*
X130548095Y-72562438D02*
X130595714Y-72610057D01*
X130595714Y-72610057D02*
X130643333Y-72705295D01*
X130643333Y-72705295D02*
X130643333Y-72848152D01*
X130643333Y-72848152D02*
X130595714Y-72943390D01*
X130595714Y-72943390D02*
X130548095Y-72991009D01*
X130548095Y-72991009D02*
X130452857Y-73038628D01*
X130452857Y-73038628D02*
X130071905Y-73038628D01*
X131500476Y-72514819D02*
X131310000Y-72514819D01*
X131310000Y-72514819D02*
X131214762Y-72562438D01*
X131214762Y-72562438D02*
X131167143Y-72610057D01*
X131167143Y-72610057D02*
X131071905Y-72752914D01*
X131071905Y-72752914D02*
X131024286Y-72943390D01*
X131024286Y-72943390D02*
X131024286Y-73324342D01*
X131024286Y-73324342D02*
X131071905Y-73419580D01*
X131071905Y-73419580D02*
X131119524Y-73467200D01*
X131119524Y-73467200D02*
X131214762Y-73514819D01*
X131214762Y-73514819D02*
X131405238Y-73514819D01*
X131405238Y-73514819D02*
X131500476Y-73467200D01*
X131500476Y-73467200D02*
X131548095Y-73419580D01*
X131548095Y-73419580D02*
X131595714Y-73324342D01*
X131595714Y-73324342D02*
X131595714Y-73086247D01*
X131595714Y-73086247D02*
X131548095Y-72991009D01*
X131548095Y-72991009D02*
X131500476Y-72943390D01*
X131500476Y-72943390D02*
X131405238Y-72895771D01*
X131405238Y-72895771D02*
X131214762Y-72895771D01*
X131214762Y-72895771D02*
X131119524Y-72943390D01*
X131119524Y-72943390D02*
X131071905Y-72991009D01*
X131071905Y-72991009D02*
X131024286Y-73086247D01*
X130643333Y-70364819D02*
X130310000Y-69888628D01*
X130071905Y-70364819D02*
X130071905Y-69364819D01*
X130071905Y-69364819D02*
X130452857Y-69364819D01*
X130452857Y-69364819D02*
X130548095Y-69412438D01*
X130548095Y-69412438D02*
X130595714Y-69460057D01*
X130595714Y-69460057D02*
X130643333Y-69555295D01*
X130643333Y-69555295D02*
X130643333Y-69698152D01*
X130643333Y-69698152D02*
X130595714Y-69793390D01*
X130595714Y-69793390D02*
X130548095Y-69841009D01*
X130548095Y-69841009D02*
X130452857Y-69888628D01*
X130452857Y-69888628D02*
X130071905Y-69888628D01*
X131548095Y-69364819D02*
X131071905Y-69364819D01*
X131071905Y-69364819D02*
X131024286Y-69841009D01*
X131024286Y-69841009D02*
X131071905Y-69793390D01*
X131071905Y-69793390D02*
X131167143Y-69745771D01*
X131167143Y-69745771D02*
X131405238Y-69745771D01*
X131405238Y-69745771D02*
X131500476Y-69793390D01*
X131500476Y-69793390D02*
X131548095Y-69841009D01*
X131548095Y-69841009D02*
X131595714Y-69936247D01*
X131595714Y-69936247D02*
X131595714Y-70174342D01*
X131595714Y-70174342D02*
X131548095Y-70269580D01*
X131548095Y-70269580D02*
X131500476Y-70317200D01*
X131500476Y-70317200D02*
X131405238Y-70364819D01*
X131405238Y-70364819D02*
X131167143Y-70364819D01*
X131167143Y-70364819D02*
X131071905Y-70317200D01*
X131071905Y-70317200D02*
X131024286Y-70269580D01*
X130643333Y-67214819D02*
X130310000Y-66738628D01*
X130071905Y-67214819D02*
X130071905Y-66214819D01*
X130071905Y-66214819D02*
X130452857Y-66214819D01*
X130452857Y-66214819D02*
X130548095Y-66262438D01*
X130548095Y-66262438D02*
X130595714Y-66310057D01*
X130595714Y-66310057D02*
X130643333Y-66405295D01*
X130643333Y-66405295D02*
X130643333Y-66548152D01*
X130643333Y-66548152D02*
X130595714Y-66643390D01*
X130595714Y-66643390D02*
X130548095Y-66691009D01*
X130548095Y-66691009D02*
X130452857Y-66738628D01*
X130452857Y-66738628D02*
X130071905Y-66738628D01*
X131500476Y-66548152D02*
X131500476Y-67214819D01*
X131262381Y-66167200D02*
X131024286Y-66881485D01*
X131024286Y-66881485D02*
X131643333Y-66881485D01*
X130643333Y-64064819D02*
X130310000Y-63588628D01*
X130071905Y-64064819D02*
X130071905Y-63064819D01*
X130071905Y-63064819D02*
X130452857Y-63064819D01*
X130452857Y-63064819D02*
X130548095Y-63112438D01*
X130548095Y-63112438D02*
X130595714Y-63160057D01*
X130595714Y-63160057D02*
X130643333Y-63255295D01*
X130643333Y-63255295D02*
X130643333Y-63398152D01*
X130643333Y-63398152D02*
X130595714Y-63493390D01*
X130595714Y-63493390D02*
X130548095Y-63541009D01*
X130548095Y-63541009D02*
X130452857Y-63588628D01*
X130452857Y-63588628D02*
X130071905Y-63588628D01*
X130976667Y-63064819D02*
X131595714Y-63064819D01*
X131595714Y-63064819D02*
X131262381Y-63445771D01*
X131262381Y-63445771D02*
X131405238Y-63445771D01*
X131405238Y-63445771D02*
X131500476Y-63493390D01*
X131500476Y-63493390D02*
X131548095Y-63541009D01*
X131548095Y-63541009D02*
X131595714Y-63636247D01*
X131595714Y-63636247D02*
X131595714Y-63874342D01*
X131595714Y-63874342D02*
X131548095Y-63969580D01*
X131548095Y-63969580D02*
X131500476Y-64017200D01*
X131500476Y-64017200D02*
X131405238Y-64064819D01*
X131405238Y-64064819D02*
X131119524Y-64064819D01*
X131119524Y-64064819D02*
X131024286Y-64017200D01*
X131024286Y-64017200D02*
X130976667Y-63969580D01*
X130643333Y-60914819D02*
X130310000Y-60438628D01*
X130071905Y-60914819D02*
X130071905Y-59914819D01*
X130071905Y-59914819D02*
X130452857Y-59914819D01*
X130452857Y-59914819D02*
X130548095Y-59962438D01*
X130548095Y-59962438D02*
X130595714Y-60010057D01*
X130595714Y-60010057D02*
X130643333Y-60105295D01*
X130643333Y-60105295D02*
X130643333Y-60248152D01*
X130643333Y-60248152D02*
X130595714Y-60343390D01*
X130595714Y-60343390D02*
X130548095Y-60391009D01*
X130548095Y-60391009D02*
X130452857Y-60438628D01*
X130452857Y-60438628D02*
X130071905Y-60438628D01*
X131024286Y-60010057D02*
X131071905Y-59962438D01*
X131071905Y-59962438D02*
X131167143Y-59914819D01*
X131167143Y-59914819D02*
X131405238Y-59914819D01*
X131405238Y-59914819D02*
X131500476Y-59962438D01*
X131500476Y-59962438D02*
X131548095Y-60010057D01*
X131548095Y-60010057D02*
X131595714Y-60105295D01*
X131595714Y-60105295D02*
X131595714Y-60200533D01*
X131595714Y-60200533D02*
X131548095Y-60343390D01*
X131548095Y-60343390D02*
X130976667Y-60914819D01*
X130976667Y-60914819D02*
X131595714Y-60914819D01*
X130643333Y-57764819D02*
X130310000Y-57288628D01*
X130071905Y-57764819D02*
X130071905Y-56764819D01*
X130071905Y-56764819D02*
X130452857Y-56764819D01*
X130452857Y-56764819D02*
X130548095Y-56812438D01*
X130548095Y-56812438D02*
X130595714Y-56860057D01*
X130595714Y-56860057D02*
X130643333Y-56955295D01*
X130643333Y-56955295D02*
X130643333Y-57098152D01*
X130643333Y-57098152D02*
X130595714Y-57193390D01*
X130595714Y-57193390D02*
X130548095Y-57241009D01*
X130548095Y-57241009D02*
X130452857Y-57288628D01*
X130452857Y-57288628D02*
X130071905Y-57288628D01*
X131595714Y-57764819D02*
X131024286Y-57764819D01*
X131310000Y-57764819D02*
X131310000Y-56764819D01*
X131310000Y-56764819D02*
X131214762Y-56907676D01*
X131214762Y-56907676D02*
X131119524Y-57002914D01*
X131119524Y-57002914D02*
X131024286Y-57050533D01*
D11*
%TO.C,U3*%
X143406347Y-116801900D02*
X146153653Y-116801900D01*
X146153653Y-111798100D02*
X143406347Y-111798100D01*
X144475200Y-111798100D02*
G75*
G03*
X145084800Y-111798100I304800J0D01*
G01*
D12*
%TO.C,C4*%
X113680000Y-107440000D02*
X119920000Y-107440000D01*
X113680000Y-104700000D02*
X113680000Y-105145000D01*
X113680000Y-104700000D02*
X119920000Y-104700000D01*
X119920000Y-104700000D02*
X119920000Y-105145000D01*
X119920000Y-106995000D02*
X119920000Y-107440000D01*
X113680000Y-106995000D02*
X113680000Y-107440000D01*
%TO.C,C3*%
X113680000Y-97890000D02*
X119920000Y-97890000D01*
X113680000Y-95150000D02*
X113680000Y-95595000D01*
X113680000Y-95150000D02*
X119920000Y-95150000D01*
X119920000Y-95150000D02*
X119920000Y-95595000D01*
X119920000Y-97445000D02*
X119920000Y-97890000D01*
X113680000Y-97445000D02*
X113680000Y-97890000D01*
%TO.C,C1*%
X113680000Y-80720000D02*
X119920000Y-80720000D01*
X113680000Y-77980000D02*
X113680000Y-78425000D01*
X113680000Y-77980000D02*
X119920000Y-77980000D01*
X119920000Y-77980000D02*
X119920000Y-78425000D01*
X119920000Y-80275000D02*
X119920000Y-80720000D01*
X113680000Y-80275000D02*
X113680000Y-80720000D01*
%TO.C,R11*%
X127940000Y-91440000D02*
X128890000Y-91440000D01*
X128890000Y-90520000D02*
X128890000Y-92360000D01*
X133680000Y-91440000D02*
X132730000Y-91440000D01*
X128890000Y-92360000D02*
X132730000Y-92360000D01*
X132730000Y-90520000D02*
X128890000Y-90520000D01*
X132730000Y-92360000D02*
X132730000Y-90520000D01*
%TO.C,R10*%
X127940000Y-88290000D02*
X128890000Y-88290000D01*
X128890000Y-87370000D02*
X128890000Y-89210000D01*
X133680000Y-88290000D02*
X132730000Y-88290000D01*
X128890000Y-89210000D02*
X132730000Y-89210000D01*
X132730000Y-87370000D02*
X128890000Y-87370000D01*
X132730000Y-89210000D02*
X132730000Y-87370000D01*
%TO.C,R9*%
X127940000Y-85140000D02*
X128890000Y-85140000D01*
X128890000Y-84220000D02*
X128890000Y-86060000D01*
X133680000Y-85140000D02*
X132730000Y-85140000D01*
X128890000Y-86060000D02*
X132730000Y-86060000D01*
X132730000Y-84220000D02*
X128890000Y-84220000D01*
X132730000Y-86060000D02*
X132730000Y-84220000D01*
%TO.C,R8*%
X127940000Y-81990000D02*
X128890000Y-81990000D01*
X128890000Y-81070000D02*
X128890000Y-82910000D01*
X133680000Y-81990000D02*
X132730000Y-81990000D01*
X128890000Y-82910000D02*
X132730000Y-82910000D01*
X132730000Y-81070000D02*
X128890000Y-81070000D01*
X132730000Y-82910000D02*
X132730000Y-81070000D01*
%TO.C,R7*%
X127940000Y-78840000D02*
X128890000Y-78840000D01*
X128890000Y-77920000D02*
X128890000Y-79760000D01*
X133680000Y-78840000D02*
X132730000Y-78840000D01*
X128890000Y-79760000D02*
X132730000Y-79760000D01*
X132730000Y-77920000D02*
X128890000Y-77920000D01*
X132730000Y-79760000D02*
X132730000Y-77920000D01*
%TO.C,C7*%
X126166248Y-116105000D02*
X126688752Y-116105000D01*
X126166248Y-117575000D02*
X126688752Y-117575000D01*
%TO.C,C6*%
X125701248Y-111025000D02*
X126223752Y-111025000D01*
X125701248Y-112495000D02*
X126223752Y-112495000D01*
%TO.C,C5*%
X126738748Y-105945000D02*
X127261252Y-105945000D01*
X126738748Y-107415000D02*
X127261252Y-107415000D01*
%TO.C,C2*%
X113680000Y-89825000D02*
X113680000Y-90270000D01*
X119920000Y-89825000D02*
X119920000Y-90270000D01*
X119920000Y-87530000D02*
X119920000Y-87975000D01*
X113680000Y-87530000D02*
X119920000Y-87530000D01*
X113680000Y-87530000D02*
X113680000Y-87975000D01*
X113680000Y-90270000D02*
X119920000Y-90270000D01*
%TO.C,U4*%
X159040000Y-105350000D02*
X159040000Y-115630000D01*
X163540000Y-105350000D02*
X162290000Y-105350000D01*
X159040000Y-115630000D02*
X163540000Y-115630000D01*
X163540000Y-115630000D02*
X163540000Y-105350000D01*
X160290000Y-105350000D02*
X159040000Y-105350000D01*
X160290000Y-105350000D02*
G75*
G03*
X162290000Y-105350000I1000000J0D01*
G01*
%TO.C,U2*%
X162735000Y-89005000D02*
X156315000Y-89005000D01*
X156315000Y-89005000D02*
X156315000Y-89275000D01*
X156315000Y-89275000D02*
X153485000Y-89275000D01*
X162735000Y-95905000D02*
X156315000Y-95905000D01*
X156315000Y-95905000D02*
X156315000Y-95635000D01*
X156315000Y-95635000D02*
X155215000Y-95635000D01*
%TO.C,U1*%
X155195000Y-71000000D02*
X153695000Y-71000000D01*
X153695000Y-71000000D02*
X153695000Y-72810000D01*
X153695000Y-72810000D02*
X148570000Y-72810000D01*
X155195000Y-81400000D02*
X153695000Y-81400000D01*
X153695000Y-81400000D02*
X153695000Y-79590000D01*
X153695000Y-79590000D02*
X152595000Y-79590000D01*
%TO.C,R6*%
X127940000Y-74980000D02*
X128890000Y-74980000D01*
X128890000Y-74060000D02*
X128890000Y-75900000D01*
X133680000Y-74980000D02*
X132730000Y-74980000D01*
X128890000Y-75900000D02*
X132730000Y-75900000D01*
X132730000Y-74060000D02*
X128890000Y-74060000D01*
X132730000Y-75900000D02*
X132730000Y-74060000D01*
%TO.C,R5*%
X127940000Y-71830000D02*
X128890000Y-71830000D01*
X128890000Y-70910000D02*
X128890000Y-72750000D01*
X133680000Y-71830000D02*
X132730000Y-71830000D01*
X128890000Y-72750000D02*
X132730000Y-72750000D01*
X132730000Y-70910000D02*
X128890000Y-70910000D01*
X132730000Y-72750000D02*
X132730000Y-70910000D01*
%TO.C,R4*%
X127940000Y-68680000D02*
X128890000Y-68680000D01*
X128890000Y-67760000D02*
X128890000Y-69600000D01*
X133680000Y-68680000D02*
X132730000Y-68680000D01*
X128890000Y-69600000D02*
X132730000Y-69600000D01*
X132730000Y-67760000D02*
X128890000Y-67760000D01*
X132730000Y-69600000D02*
X132730000Y-67760000D01*
%TO.C,R3*%
X127940000Y-65530000D02*
X128890000Y-65530000D01*
X128890000Y-64610000D02*
X128890000Y-66450000D01*
X133680000Y-65530000D02*
X132730000Y-65530000D01*
X128890000Y-66450000D02*
X132730000Y-66450000D01*
X132730000Y-64610000D02*
X128890000Y-64610000D01*
X132730000Y-66450000D02*
X132730000Y-64610000D01*
%TO.C,R2*%
X127940000Y-62380000D02*
X128890000Y-62380000D01*
X128890000Y-61460000D02*
X128890000Y-63300000D01*
X133680000Y-62380000D02*
X132730000Y-62380000D01*
X128890000Y-63300000D02*
X132730000Y-63300000D01*
X132730000Y-61460000D02*
X128890000Y-61460000D01*
X132730000Y-63300000D02*
X132730000Y-61460000D01*
%TO.C,R1*%
X127940000Y-59230000D02*
X128890000Y-59230000D01*
X128890000Y-58310000D02*
X128890000Y-60150000D01*
X133680000Y-59230000D02*
X132730000Y-59230000D01*
X128890000Y-60150000D02*
X132730000Y-60150000D01*
X132730000Y-58310000D02*
X128890000Y-58310000D01*
X132730000Y-60150000D02*
X132730000Y-58310000D01*
%TD*%
M02*
