M48
; DRILL file {KiCad 7.0.8} date Tue Nov 28 08:25:00 2023
; FORMAT={-:-/ absolute / inch / decimal}
; #@! TF.CreationDate,2023-11-28T08:25:00-03:00
; #@! TF.GenerationSoftware,Kicad,Pcbnew,7.0.8
; #@! TF.FileFunction,Plated,1,2,PTH
FMAT,2
INCH
; #@! TA.AperFunction,Plated,PTH,ComponentDrill
T1C0.0276
; #@! TA.AperFunction,Plated,PTH,ComponentDrill
T2C0.0315
; #@! TA.AperFunction,Plated,PTH,ComponentDrill
T3C0.0394
%
G90
G05
T1
X4.55Y-2.752
X4.7Y-3.45
X4.7Y-3.75
X4.85Y-2.752
X5.9Y-2.85
X5.9Y-3.15
X6.05Y-2.7
X6.3Y-3.7
X6.35Y-2.7
X6.55Y-3.4
X6.55Y-3.5
X6.55Y-3.9
X6.55Y-4.2
X6.6Y-2.85
X6.6Y-3.15
X6.6Y-3.7
X6.7Y-2.85
X6.7Y-3.15
X6.85Y-3.4
X6.85Y-3.5
X6.85Y-3.9
X6.85Y-4.2
T2
X4.6Y-2.9
X4.6Y-3.0969
X4.8Y-2.9
X4.8Y-3.0969
X5.0Y-3.3
X5.0Y-3.4031
X5.0Y-3.6
X5.1969Y-3.3
X5.9504Y-3.9506
X5.9504Y-4.2506
X6.0496Y-2.8494
X6.0496Y-3.1494
X6.0504Y-3.9506
X6.0504Y-4.2506
X6.1496Y-2.8494
X6.1496Y-3.1494
X6.1504Y-3.9506
X6.1504Y-4.2506
X6.2496Y-2.8494
X6.2496Y-3.1494
X6.2504Y-3.9506
X6.2504Y-4.2506
X6.3496Y-2.8494
X6.3496Y-3.1494
T3
X4.3Y-3.2
X4.3Y-3.3
X4.3Y-3.4
X5.2Y-2.3
X5.3Y-2.3
X5.4Y-4.1
X5.4Y-4.2
X6.0Y-3.8
X6.1Y-3.8
X6.2Y-2.5
X6.3Y-2.5
T0
M30
