%TF.GenerationSoftware,KiCad,Pcbnew,7.0.8*%
%TF.CreationDate,2023-11-23T11:48:21-03:00*%
%TF.ProjectId,design,64657369-676e-42e6-9b69-6361645f7063,rev?*%
%TF.SameCoordinates,Original*%
%TF.FileFunction,Legend,Top*%
%TF.FilePolarity,Positive*%
%FSLAX46Y46*%
G04 Gerber Fmt 4.6, Leading zero omitted, Abs format (unit mm)*
G04 Created by KiCad (PCBNEW 7.0.8) date 2023-11-23 11:48:21*
%MOMM*%
%LPD*%
G01*
G04 APERTURE LIST*
%ADD10C,0.150000*%
%ADD11C,0.152400*%
%ADD12C,0.120000*%
G04 APERTURE END LIST*
D10*
X148457695Y-98271919D02*
X148457695Y-99081442D01*
X148457695Y-99081442D02*
X148505314Y-99176680D01*
X148505314Y-99176680D02*
X148552933Y-99224300D01*
X148552933Y-99224300D02*
X148648171Y-99271919D01*
X148648171Y-99271919D02*
X148838647Y-99271919D01*
X148838647Y-99271919D02*
X148933885Y-99224300D01*
X148933885Y-99224300D02*
X148981504Y-99176680D01*
X148981504Y-99176680D02*
X149029123Y-99081442D01*
X149029123Y-99081442D02*
X149029123Y-98271919D01*
X149410076Y-98271919D02*
X150029123Y-98271919D01*
X150029123Y-98271919D02*
X149695790Y-98652871D01*
X149695790Y-98652871D02*
X149838647Y-98652871D01*
X149838647Y-98652871D02*
X149933885Y-98700490D01*
X149933885Y-98700490D02*
X149981504Y-98748109D01*
X149981504Y-98748109D02*
X150029123Y-98843347D01*
X150029123Y-98843347D02*
X150029123Y-99081442D01*
X150029123Y-99081442D02*
X149981504Y-99176680D01*
X149981504Y-99176680D02*
X149933885Y-99224300D01*
X149933885Y-99224300D02*
X149838647Y-99271919D01*
X149838647Y-99271919D02*
X149552933Y-99271919D01*
X149552933Y-99271919D02*
X149457695Y-99224300D01*
X149457695Y-99224300D02*
X149410076Y-99176680D01*
X146501800Y-94665119D02*
X146501800Y-94903214D01*
X146263705Y-94807976D02*
X146501800Y-94903214D01*
X146501800Y-94903214D02*
X146739895Y-94807976D01*
X146358943Y-95093690D02*
X146501800Y-94903214D01*
X146501800Y-94903214D02*
X146644657Y-95093690D01*
X146501800Y-94665119D02*
X146501800Y-94903214D01*
X146263705Y-94807976D02*
X146501800Y-94903214D01*
X146501800Y-94903214D02*
X146739895Y-94807976D01*
X146358943Y-95093690D02*
X146501800Y-94903214D01*
X146501800Y-94903214D02*
X146644657Y-95093690D01*
X124445833Y-96479580D02*
X124398214Y-96527200D01*
X124398214Y-96527200D02*
X124255357Y-96574819D01*
X124255357Y-96574819D02*
X124160119Y-96574819D01*
X124160119Y-96574819D02*
X124017262Y-96527200D01*
X124017262Y-96527200D02*
X123922024Y-96431961D01*
X123922024Y-96431961D02*
X123874405Y-96336723D01*
X123874405Y-96336723D02*
X123826786Y-96146247D01*
X123826786Y-96146247D02*
X123826786Y-96003390D01*
X123826786Y-96003390D02*
X123874405Y-95812914D01*
X123874405Y-95812914D02*
X123922024Y-95717676D01*
X123922024Y-95717676D02*
X124017262Y-95622438D01*
X124017262Y-95622438D02*
X124160119Y-95574819D01*
X124160119Y-95574819D02*
X124255357Y-95574819D01*
X124255357Y-95574819D02*
X124398214Y-95622438D01*
X124398214Y-95622438D02*
X124445833Y-95670057D01*
X125302976Y-95908152D02*
X125302976Y-96574819D01*
X125064881Y-95527200D02*
X124826786Y-96241485D01*
X124826786Y-96241485D02*
X125445833Y-96241485D01*
X124445833Y-86929580D02*
X124398214Y-86977200D01*
X124398214Y-86977200D02*
X124255357Y-87024819D01*
X124255357Y-87024819D02*
X124160119Y-87024819D01*
X124160119Y-87024819D02*
X124017262Y-86977200D01*
X124017262Y-86977200D02*
X123922024Y-86881961D01*
X123922024Y-86881961D02*
X123874405Y-86786723D01*
X123874405Y-86786723D02*
X123826786Y-86596247D01*
X123826786Y-86596247D02*
X123826786Y-86453390D01*
X123826786Y-86453390D02*
X123874405Y-86262914D01*
X123874405Y-86262914D02*
X123922024Y-86167676D01*
X123922024Y-86167676D02*
X124017262Y-86072438D01*
X124017262Y-86072438D02*
X124160119Y-86024819D01*
X124160119Y-86024819D02*
X124255357Y-86024819D01*
X124255357Y-86024819D02*
X124398214Y-86072438D01*
X124398214Y-86072438D02*
X124445833Y-86120057D01*
X124779167Y-86024819D02*
X125398214Y-86024819D01*
X125398214Y-86024819D02*
X125064881Y-86405771D01*
X125064881Y-86405771D02*
X125207738Y-86405771D01*
X125207738Y-86405771D02*
X125302976Y-86453390D01*
X125302976Y-86453390D02*
X125350595Y-86501009D01*
X125350595Y-86501009D02*
X125398214Y-86596247D01*
X125398214Y-86596247D02*
X125398214Y-86834342D01*
X125398214Y-86834342D02*
X125350595Y-86929580D01*
X125350595Y-86929580D02*
X125302976Y-86977200D01*
X125302976Y-86977200D02*
X125207738Y-87024819D01*
X125207738Y-87024819D02*
X124922024Y-87024819D01*
X124922024Y-87024819D02*
X124826786Y-86977200D01*
X124826786Y-86977200D02*
X124779167Y-86929580D01*
X124445833Y-77379580D02*
X124398214Y-77427200D01*
X124398214Y-77427200D02*
X124255357Y-77474819D01*
X124255357Y-77474819D02*
X124160119Y-77474819D01*
X124160119Y-77474819D02*
X124017262Y-77427200D01*
X124017262Y-77427200D02*
X123922024Y-77331961D01*
X123922024Y-77331961D02*
X123874405Y-77236723D01*
X123874405Y-77236723D02*
X123826786Y-77046247D01*
X123826786Y-77046247D02*
X123826786Y-76903390D01*
X123826786Y-76903390D02*
X123874405Y-76712914D01*
X123874405Y-76712914D02*
X123922024Y-76617676D01*
X123922024Y-76617676D02*
X124017262Y-76522438D01*
X124017262Y-76522438D02*
X124160119Y-76474819D01*
X124160119Y-76474819D02*
X124255357Y-76474819D01*
X124255357Y-76474819D02*
X124398214Y-76522438D01*
X124398214Y-76522438D02*
X124445833Y-76570057D01*
X125398214Y-77474819D02*
X124826786Y-77474819D01*
X125112500Y-77474819D02*
X125112500Y-76474819D01*
X125112500Y-76474819D02*
X125017262Y-76617676D01*
X125017262Y-76617676D02*
X124922024Y-76712914D01*
X124922024Y-76712914D02*
X124826786Y-76760533D01*
X133279642Y-87454819D02*
X132946309Y-86978628D01*
X132708214Y-87454819D02*
X132708214Y-86454819D01*
X132708214Y-86454819D02*
X133089166Y-86454819D01*
X133089166Y-86454819D02*
X133184404Y-86502438D01*
X133184404Y-86502438D02*
X133232023Y-86550057D01*
X133232023Y-86550057D02*
X133279642Y-86645295D01*
X133279642Y-86645295D02*
X133279642Y-86788152D01*
X133279642Y-86788152D02*
X133232023Y-86883390D01*
X133232023Y-86883390D02*
X133184404Y-86931009D01*
X133184404Y-86931009D02*
X133089166Y-86978628D01*
X133089166Y-86978628D02*
X132708214Y-86978628D01*
X134232023Y-87454819D02*
X133660595Y-87454819D01*
X133946309Y-87454819D02*
X133946309Y-86454819D01*
X133946309Y-86454819D02*
X133851071Y-86597676D01*
X133851071Y-86597676D02*
X133755833Y-86692914D01*
X133755833Y-86692914D02*
X133660595Y-86740533D01*
X135184404Y-87454819D02*
X134612976Y-87454819D01*
X134898690Y-87454819D02*
X134898690Y-86454819D01*
X134898690Y-86454819D02*
X134803452Y-86597676D01*
X134803452Y-86597676D02*
X134708214Y-86692914D01*
X134708214Y-86692914D02*
X134612976Y-86740533D01*
X133279642Y-84304819D02*
X132946309Y-83828628D01*
X132708214Y-84304819D02*
X132708214Y-83304819D01*
X132708214Y-83304819D02*
X133089166Y-83304819D01*
X133089166Y-83304819D02*
X133184404Y-83352438D01*
X133184404Y-83352438D02*
X133232023Y-83400057D01*
X133232023Y-83400057D02*
X133279642Y-83495295D01*
X133279642Y-83495295D02*
X133279642Y-83638152D01*
X133279642Y-83638152D02*
X133232023Y-83733390D01*
X133232023Y-83733390D02*
X133184404Y-83781009D01*
X133184404Y-83781009D02*
X133089166Y-83828628D01*
X133089166Y-83828628D02*
X132708214Y-83828628D01*
X134232023Y-84304819D02*
X133660595Y-84304819D01*
X133946309Y-84304819D02*
X133946309Y-83304819D01*
X133946309Y-83304819D02*
X133851071Y-83447676D01*
X133851071Y-83447676D02*
X133755833Y-83542914D01*
X133755833Y-83542914D02*
X133660595Y-83590533D01*
X134851071Y-83304819D02*
X134946309Y-83304819D01*
X134946309Y-83304819D02*
X135041547Y-83352438D01*
X135041547Y-83352438D02*
X135089166Y-83400057D01*
X135089166Y-83400057D02*
X135136785Y-83495295D01*
X135136785Y-83495295D02*
X135184404Y-83685771D01*
X135184404Y-83685771D02*
X135184404Y-83923866D01*
X135184404Y-83923866D02*
X135136785Y-84114342D01*
X135136785Y-84114342D02*
X135089166Y-84209580D01*
X135089166Y-84209580D02*
X135041547Y-84257200D01*
X135041547Y-84257200D02*
X134946309Y-84304819D01*
X134946309Y-84304819D02*
X134851071Y-84304819D01*
X134851071Y-84304819D02*
X134755833Y-84257200D01*
X134755833Y-84257200D02*
X134708214Y-84209580D01*
X134708214Y-84209580D02*
X134660595Y-84114342D01*
X134660595Y-84114342D02*
X134612976Y-83923866D01*
X134612976Y-83923866D02*
X134612976Y-83685771D01*
X134612976Y-83685771D02*
X134660595Y-83495295D01*
X134660595Y-83495295D02*
X134708214Y-83400057D01*
X134708214Y-83400057D02*
X134755833Y-83352438D01*
X134755833Y-83352438D02*
X134851071Y-83304819D01*
X133755833Y-81154819D02*
X133422500Y-80678628D01*
X133184405Y-81154819D02*
X133184405Y-80154819D01*
X133184405Y-80154819D02*
X133565357Y-80154819D01*
X133565357Y-80154819D02*
X133660595Y-80202438D01*
X133660595Y-80202438D02*
X133708214Y-80250057D01*
X133708214Y-80250057D02*
X133755833Y-80345295D01*
X133755833Y-80345295D02*
X133755833Y-80488152D01*
X133755833Y-80488152D02*
X133708214Y-80583390D01*
X133708214Y-80583390D02*
X133660595Y-80631009D01*
X133660595Y-80631009D02*
X133565357Y-80678628D01*
X133565357Y-80678628D02*
X133184405Y-80678628D01*
X134232024Y-81154819D02*
X134422500Y-81154819D01*
X134422500Y-81154819D02*
X134517738Y-81107200D01*
X134517738Y-81107200D02*
X134565357Y-81059580D01*
X134565357Y-81059580D02*
X134660595Y-80916723D01*
X134660595Y-80916723D02*
X134708214Y-80726247D01*
X134708214Y-80726247D02*
X134708214Y-80345295D01*
X134708214Y-80345295D02*
X134660595Y-80250057D01*
X134660595Y-80250057D02*
X134612976Y-80202438D01*
X134612976Y-80202438D02*
X134517738Y-80154819D01*
X134517738Y-80154819D02*
X134327262Y-80154819D01*
X134327262Y-80154819D02*
X134232024Y-80202438D01*
X134232024Y-80202438D02*
X134184405Y-80250057D01*
X134184405Y-80250057D02*
X134136786Y-80345295D01*
X134136786Y-80345295D02*
X134136786Y-80583390D01*
X134136786Y-80583390D02*
X134184405Y-80678628D01*
X134184405Y-80678628D02*
X134232024Y-80726247D01*
X134232024Y-80726247D02*
X134327262Y-80773866D01*
X134327262Y-80773866D02*
X134517738Y-80773866D01*
X134517738Y-80773866D02*
X134612976Y-80726247D01*
X134612976Y-80726247D02*
X134660595Y-80678628D01*
X134660595Y-80678628D02*
X134708214Y-80583390D01*
X133755833Y-78004819D02*
X133422500Y-77528628D01*
X133184405Y-78004819D02*
X133184405Y-77004819D01*
X133184405Y-77004819D02*
X133565357Y-77004819D01*
X133565357Y-77004819D02*
X133660595Y-77052438D01*
X133660595Y-77052438D02*
X133708214Y-77100057D01*
X133708214Y-77100057D02*
X133755833Y-77195295D01*
X133755833Y-77195295D02*
X133755833Y-77338152D01*
X133755833Y-77338152D02*
X133708214Y-77433390D01*
X133708214Y-77433390D02*
X133660595Y-77481009D01*
X133660595Y-77481009D02*
X133565357Y-77528628D01*
X133565357Y-77528628D02*
X133184405Y-77528628D01*
X134327262Y-77433390D02*
X134232024Y-77385771D01*
X134232024Y-77385771D02*
X134184405Y-77338152D01*
X134184405Y-77338152D02*
X134136786Y-77242914D01*
X134136786Y-77242914D02*
X134136786Y-77195295D01*
X134136786Y-77195295D02*
X134184405Y-77100057D01*
X134184405Y-77100057D02*
X134232024Y-77052438D01*
X134232024Y-77052438D02*
X134327262Y-77004819D01*
X134327262Y-77004819D02*
X134517738Y-77004819D01*
X134517738Y-77004819D02*
X134612976Y-77052438D01*
X134612976Y-77052438D02*
X134660595Y-77100057D01*
X134660595Y-77100057D02*
X134708214Y-77195295D01*
X134708214Y-77195295D02*
X134708214Y-77242914D01*
X134708214Y-77242914D02*
X134660595Y-77338152D01*
X134660595Y-77338152D02*
X134612976Y-77385771D01*
X134612976Y-77385771D02*
X134517738Y-77433390D01*
X134517738Y-77433390D02*
X134327262Y-77433390D01*
X134327262Y-77433390D02*
X134232024Y-77481009D01*
X134232024Y-77481009D02*
X134184405Y-77528628D01*
X134184405Y-77528628D02*
X134136786Y-77623866D01*
X134136786Y-77623866D02*
X134136786Y-77814342D01*
X134136786Y-77814342D02*
X134184405Y-77909580D01*
X134184405Y-77909580D02*
X134232024Y-77957200D01*
X134232024Y-77957200D02*
X134327262Y-78004819D01*
X134327262Y-78004819D02*
X134517738Y-78004819D01*
X134517738Y-78004819D02*
X134612976Y-77957200D01*
X134612976Y-77957200D02*
X134660595Y-77909580D01*
X134660595Y-77909580D02*
X134708214Y-77814342D01*
X134708214Y-77814342D02*
X134708214Y-77623866D01*
X134708214Y-77623866D02*
X134660595Y-77528628D01*
X134660595Y-77528628D02*
X134612976Y-77481009D01*
X134612976Y-77481009D02*
X134517738Y-77433390D01*
X133755833Y-74854819D02*
X133422500Y-74378628D01*
X133184405Y-74854819D02*
X133184405Y-73854819D01*
X133184405Y-73854819D02*
X133565357Y-73854819D01*
X133565357Y-73854819D02*
X133660595Y-73902438D01*
X133660595Y-73902438D02*
X133708214Y-73950057D01*
X133708214Y-73950057D02*
X133755833Y-74045295D01*
X133755833Y-74045295D02*
X133755833Y-74188152D01*
X133755833Y-74188152D02*
X133708214Y-74283390D01*
X133708214Y-74283390D02*
X133660595Y-74331009D01*
X133660595Y-74331009D02*
X133565357Y-74378628D01*
X133565357Y-74378628D02*
X133184405Y-74378628D01*
X134089167Y-73854819D02*
X134755833Y-73854819D01*
X134755833Y-73854819D02*
X134327262Y-74854819D01*
X166365595Y-137084819D02*
X166365595Y-136084819D01*
X166365595Y-136561009D02*
X166937023Y-136561009D01*
X166937023Y-137084819D02*
X166937023Y-136084819D01*
X167841785Y-136418152D02*
X167841785Y-137084819D01*
X167603690Y-136037200D02*
X167365595Y-136751485D01*
X167365595Y-136751485D02*
X167984642Y-136751485D01*
X108458095Y-113824819D02*
X108458095Y-112824819D01*
X108458095Y-113301009D02*
X109029523Y-113301009D01*
X109029523Y-113824819D02*
X109029523Y-112824819D01*
X109410476Y-112824819D02*
X110029523Y-112824819D01*
X110029523Y-112824819D02*
X109696190Y-113205771D01*
X109696190Y-113205771D02*
X109839047Y-113205771D01*
X109839047Y-113205771D02*
X109934285Y-113253390D01*
X109934285Y-113253390D02*
X109981904Y-113301009D01*
X109981904Y-113301009D02*
X110029523Y-113396247D01*
X110029523Y-113396247D02*
X110029523Y-113634342D01*
X110029523Y-113634342D02*
X109981904Y-113729580D01*
X109981904Y-113729580D02*
X109934285Y-113777200D01*
X109934285Y-113777200D02*
X109839047Y-113824819D01*
X109839047Y-113824819D02*
X109553333Y-113824819D01*
X109553333Y-113824819D02*
X109458095Y-113777200D01*
X109458095Y-113777200D02*
X109410476Y-113729580D01*
X171958095Y-56914819D02*
X171958095Y-55914819D01*
X171958095Y-56391009D02*
X172529523Y-56391009D01*
X172529523Y-56914819D02*
X172529523Y-55914819D01*
X172958095Y-56010057D02*
X173005714Y-55962438D01*
X173005714Y-55962438D02*
X173100952Y-55914819D01*
X173100952Y-55914819D02*
X173339047Y-55914819D01*
X173339047Y-55914819D02*
X173434285Y-55962438D01*
X173434285Y-55962438D02*
X173481904Y-56010057D01*
X173481904Y-56010057D02*
X173529523Y-56105295D01*
X173529523Y-56105295D02*
X173529523Y-56200533D01*
X173529523Y-56200533D02*
X173481904Y-56343390D01*
X173481904Y-56343390D02*
X172910476Y-56914819D01*
X172910476Y-56914819D02*
X173529523Y-56914819D01*
X108458095Y-56914819D02*
X108458095Y-55914819D01*
X108458095Y-56391009D02*
X109029523Y-56391009D01*
X109029523Y-56914819D02*
X109029523Y-55914819D01*
X110029523Y-56914819D02*
X109458095Y-56914819D01*
X109743809Y-56914819D02*
X109743809Y-55914819D01*
X109743809Y-55914819D02*
X109648571Y-56057676D01*
X109648571Y-56057676D02*
X109553333Y-56152914D01*
X109553333Y-56152914D02*
X109458095Y-56200533D01*
X130875833Y-97739580D02*
X130828214Y-97787200D01*
X130828214Y-97787200D02*
X130685357Y-97834819D01*
X130685357Y-97834819D02*
X130590119Y-97834819D01*
X130590119Y-97834819D02*
X130447262Y-97787200D01*
X130447262Y-97787200D02*
X130352024Y-97691961D01*
X130352024Y-97691961D02*
X130304405Y-97596723D01*
X130304405Y-97596723D02*
X130256786Y-97406247D01*
X130256786Y-97406247D02*
X130256786Y-97263390D01*
X130256786Y-97263390D02*
X130304405Y-97072914D01*
X130304405Y-97072914D02*
X130352024Y-96977676D01*
X130352024Y-96977676D02*
X130447262Y-96882438D01*
X130447262Y-96882438D02*
X130590119Y-96834819D01*
X130590119Y-96834819D02*
X130685357Y-96834819D01*
X130685357Y-96834819D02*
X130828214Y-96882438D01*
X130828214Y-96882438D02*
X130875833Y-96930057D01*
X131209167Y-96834819D02*
X131875833Y-96834819D01*
X131875833Y-96834819D02*
X131447262Y-97834819D01*
X130875833Y-94729580D02*
X130828214Y-94777200D01*
X130828214Y-94777200D02*
X130685357Y-94824819D01*
X130685357Y-94824819D02*
X130590119Y-94824819D01*
X130590119Y-94824819D02*
X130447262Y-94777200D01*
X130447262Y-94777200D02*
X130352024Y-94681961D01*
X130352024Y-94681961D02*
X130304405Y-94586723D01*
X130304405Y-94586723D02*
X130256786Y-94396247D01*
X130256786Y-94396247D02*
X130256786Y-94253390D01*
X130256786Y-94253390D02*
X130304405Y-94062914D01*
X130304405Y-94062914D02*
X130352024Y-93967676D01*
X130352024Y-93967676D02*
X130447262Y-93872438D01*
X130447262Y-93872438D02*
X130590119Y-93824819D01*
X130590119Y-93824819D02*
X130685357Y-93824819D01*
X130685357Y-93824819D02*
X130828214Y-93872438D01*
X130828214Y-93872438D02*
X130875833Y-93920057D01*
X131732976Y-93824819D02*
X131542500Y-93824819D01*
X131542500Y-93824819D02*
X131447262Y-93872438D01*
X131447262Y-93872438D02*
X131399643Y-93920057D01*
X131399643Y-93920057D02*
X131304405Y-94062914D01*
X131304405Y-94062914D02*
X131256786Y-94253390D01*
X131256786Y-94253390D02*
X131256786Y-94634342D01*
X131256786Y-94634342D02*
X131304405Y-94729580D01*
X131304405Y-94729580D02*
X131352024Y-94777200D01*
X131352024Y-94777200D02*
X131447262Y-94824819D01*
X131447262Y-94824819D02*
X131637738Y-94824819D01*
X131637738Y-94824819D02*
X131732976Y-94777200D01*
X131732976Y-94777200D02*
X131780595Y-94729580D01*
X131780595Y-94729580D02*
X131828214Y-94634342D01*
X131828214Y-94634342D02*
X131828214Y-94396247D01*
X131828214Y-94396247D02*
X131780595Y-94301009D01*
X131780595Y-94301009D02*
X131732976Y-94253390D01*
X131732976Y-94253390D02*
X131637738Y-94205771D01*
X131637738Y-94205771D02*
X131447262Y-94205771D01*
X131447262Y-94205771D02*
X131352024Y-94253390D01*
X131352024Y-94253390D02*
X131304405Y-94301009D01*
X131304405Y-94301009D02*
X131256786Y-94396247D01*
X146943333Y-102079580D02*
X146895714Y-102127200D01*
X146895714Y-102127200D02*
X146752857Y-102174819D01*
X146752857Y-102174819D02*
X146657619Y-102174819D01*
X146657619Y-102174819D02*
X146514762Y-102127200D01*
X146514762Y-102127200D02*
X146419524Y-102031961D01*
X146419524Y-102031961D02*
X146371905Y-101936723D01*
X146371905Y-101936723D02*
X146324286Y-101746247D01*
X146324286Y-101746247D02*
X146324286Y-101603390D01*
X146324286Y-101603390D02*
X146371905Y-101412914D01*
X146371905Y-101412914D02*
X146419524Y-101317676D01*
X146419524Y-101317676D02*
X146514762Y-101222438D01*
X146514762Y-101222438D02*
X146657619Y-101174819D01*
X146657619Y-101174819D02*
X146752857Y-101174819D01*
X146752857Y-101174819D02*
X146895714Y-101222438D01*
X146895714Y-101222438D02*
X146943333Y-101270057D01*
X147848095Y-101174819D02*
X147371905Y-101174819D01*
X147371905Y-101174819D02*
X147324286Y-101651009D01*
X147324286Y-101651009D02*
X147371905Y-101603390D01*
X147371905Y-101603390D02*
X147467143Y-101555771D01*
X147467143Y-101555771D02*
X147705238Y-101555771D01*
X147705238Y-101555771D02*
X147800476Y-101603390D01*
X147800476Y-101603390D02*
X147848095Y-101651009D01*
X147848095Y-101651009D02*
X147895714Y-101746247D01*
X147895714Y-101746247D02*
X147895714Y-101984342D01*
X147895714Y-101984342D02*
X147848095Y-102079580D01*
X147848095Y-102079580D02*
X147800476Y-102127200D01*
X147800476Y-102127200D02*
X147705238Y-102174819D01*
X147705238Y-102174819D02*
X147467143Y-102174819D01*
X147467143Y-102174819D02*
X147371905Y-102127200D01*
X147371905Y-102127200D02*
X147324286Y-102079580D01*
X132545833Y-90379580D02*
X132498214Y-90427200D01*
X132498214Y-90427200D02*
X132355357Y-90474819D01*
X132355357Y-90474819D02*
X132260119Y-90474819D01*
X132260119Y-90474819D02*
X132117262Y-90427200D01*
X132117262Y-90427200D02*
X132022024Y-90331961D01*
X132022024Y-90331961D02*
X131974405Y-90236723D01*
X131974405Y-90236723D02*
X131926786Y-90046247D01*
X131926786Y-90046247D02*
X131926786Y-89903390D01*
X131926786Y-89903390D02*
X131974405Y-89712914D01*
X131974405Y-89712914D02*
X132022024Y-89617676D01*
X132022024Y-89617676D02*
X132117262Y-89522438D01*
X132117262Y-89522438D02*
X132260119Y-89474819D01*
X132260119Y-89474819D02*
X132355357Y-89474819D01*
X132355357Y-89474819D02*
X132498214Y-89522438D01*
X132498214Y-89522438D02*
X132545833Y-89570057D01*
X132926786Y-89570057D02*
X132974405Y-89522438D01*
X132974405Y-89522438D02*
X133069643Y-89474819D01*
X133069643Y-89474819D02*
X133307738Y-89474819D01*
X133307738Y-89474819D02*
X133402976Y-89522438D01*
X133402976Y-89522438D02*
X133450595Y-89570057D01*
X133450595Y-89570057D02*
X133498214Y-89665295D01*
X133498214Y-89665295D02*
X133498214Y-89760533D01*
X133498214Y-89760533D02*
X133450595Y-89903390D01*
X133450595Y-89903390D02*
X132879167Y-90474819D01*
X132879167Y-90474819D02*
X133498214Y-90474819D01*
X160528095Y-96184819D02*
X160528095Y-96994342D01*
X160528095Y-96994342D02*
X160575714Y-97089580D01*
X160575714Y-97089580D02*
X160623333Y-97137200D01*
X160623333Y-97137200D02*
X160718571Y-97184819D01*
X160718571Y-97184819D02*
X160909047Y-97184819D01*
X160909047Y-97184819D02*
X161004285Y-97137200D01*
X161004285Y-97137200D02*
X161051904Y-97089580D01*
X161051904Y-97089580D02*
X161099523Y-96994342D01*
X161099523Y-96994342D02*
X161099523Y-96184819D01*
X162004285Y-96518152D02*
X162004285Y-97184819D01*
X161766190Y-96137200D02*
X161528095Y-96851485D01*
X161528095Y-96851485D02*
X162147142Y-96851485D01*
X161658095Y-87914819D02*
X161658095Y-88724342D01*
X161658095Y-88724342D02*
X161705714Y-88819580D01*
X161705714Y-88819580D02*
X161753333Y-88867200D01*
X161753333Y-88867200D02*
X161848571Y-88914819D01*
X161848571Y-88914819D02*
X162039047Y-88914819D01*
X162039047Y-88914819D02*
X162134285Y-88867200D01*
X162134285Y-88867200D02*
X162181904Y-88819580D01*
X162181904Y-88819580D02*
X162229523Y-88724342D01*
X162229523Y-88724342D02*
X162229523Y-87914819D01*
X162658095Y-88010057D02*
X162705714Y-87962438D01*
X162705714Y-87962438D02*
X162800952Y-87914819D01*
X162800952Y-87914819D02*
X163039047Y-87914819D01*
X163039047Y-87914819D02*
X163134285Y-87962438D01*
X163134285Y-87962438D02*
X163181904Y-88010057D01*
X163181904Y-88010057D02*
X163229523Y-88105295D01*
X163229523Y-88105295D02*
X163229523Y-88200533D01*
X163229523Y-88200533D02*
X163181904Y-88343390D01*
X163181904Y-88343390D02*
X162610476Y-88914819D01*
X162610476Y-88914819D02*
X163229523Y-88914819D01*
X165468095Y-75564819D02*
X165468095Y-76374342D01*
X165468095Y-76374342D02*
X165515714Y-76469580D01*
X165515714Y-76469580D02*
X165563333Y-76517200D01*
X165563333Y-76517200D02*
X165658571Y-76564819D01*
X165658571Y-76564819D02*
X165849047Y-76564819D01*
X165849047Y-76564819D02*
X165944285Y-76517200D01*
X165944285Y-76517200D02*
X165991904Y-76469580D01*
X165991904Y-76469580D02*
X166039523Y-76374342D01*
X166039523Y-76374342D02*
X166039523Y-75564819D01*
X167039523Y-76564819D02*
X166468095Y-76564819D01*
X166753809Y-76564819D02*
X166753809Y-75564819D01*
X166753809Y-75564819D02*
X166658571Y-75707676D01*
X166658571Y-75707676D02*
X166563333Y-75802914D01*
X166563333Y-75802914D02*
X166468095Y-75850533D01*
X150053333Y-92444819D02*
X149720000Y-91968628D01*
X149481905Y-92444819D02*
X149481905Y-91444819D01*
X149481905Y-91444819D02*
X149862857Y-91444819D01*
X149862857Y-91444819D02*
X149958095Y-91492438D01*
X149958095Y-91492438D02*
X150005714Y-91540057D01*
X150005714Y-91540057D02*
X150053333Y-91635295D01*
X150053333Y-91635295D02*
X150053333Y-91778152D01*
X150053333Y-91778152D02*
X150005714Y-91873390D01*
X150005714Y-91873390D02*
X149958095Y-91921009D01*
X149958095Y-91921009D02*
X149862857Y-91968628D01*
X149862857Y-91968628D02*
X149481905Y-91968628D01*
X150910476Y-91444819D02*
X150720000Y-91444819D01*
X150720000Y-91444819D02*
X150624762Y-91492438D01*
X150624762Y-91492438D02*
X150577143Y-91540057D01*
X150577143Y-91540057D02*
X150481905Y-91682914D01*
X150481905Y-91682914D02*
X150434286Y-91873390D01*
X150434286Y-91873390D02*
X150434286Y-92254342D01*
X150434286Y-92254342D02*
X150481905Y-92349580D01*
X150481905Y-92349580D02*
X150529524Y-92397200D01*
X150529524Y-92397200D02*
X150624762Y-92444819D01*
X150624762Y-92444819D02*
X150815238Y-92444819D01*
X150815238Y-92444819D02*
X150910476Y-92397200D01*
X150910476Y-92397200D02*
X150958095Y-92349580D01*
X150958095Y-92349580D02*
X151005714Y-92254342D01*
X151005714Y-92254342D02*
X151005714Y-92016247D01*
X151005714Y-92016247D02*
X150958095Y-91921009D01*
X150958095Y-91921009D02*
X150910476Y-91873390D01*
X150910476Y-91873390D02*
X150815238Y-91825771D01*
X150815238Y-91825771D02*
X150624762Y-91825771D01*
X150624762Y-91825771D02*
X150529524Y-91873390D01*
X150529524Y-91873390D02*
X150481905Y-91921009D01*
X150481905Y-91921009D02*
X150434286Y-92016247D01*
X150053333Y-89294819D02*
X149720000Y-88818628D01*
X149481905Y-89294819D02*
X149481905Y-88294819D01*
X149481905Y-88294819D02*
X149862857Y-88294819D01*
X149862857Y-88294819D02*
X149958095Y-88342438D01*
X149958095Y-88342438D02*
X150005714Y-88390057D01*
X150005714Y-88390057D02*
X150053333Y-88485295D01*
X150053333Y-88485295D02*
X150053333Y-88628152D01*
X150053333Y-88628152D02*
X150005714Y-88723390D01*
X150005714Y-88723390D02*
X149958095Y-88771009D01*
X149958095Y-88771009D02*
X149862857Y-88818628D01*
X149862857Y-88818628D02*
X149481905Y-88818628D01*
X150958095Y-88294819D02*
X150481905Y-88294819D01*
X150481905Y-88294819D02*
X150434286Y-88771009D01*
X150434286Y-88771009D02*
X150481905Y-88723390D01*
X150481905Y-88723390D02*
X150577143Y-88675771D01*
X150577143Y-88675771D02*
X150815238Y-88675771D01*
X150815238Y-88675771D02*
X150910476Y-88723390D01*
X150910476Y-88723390D02*
X150958095Y-88771009D01*
X150958095Y-88771009D02*
X151005714Y-88866247D01*
X151005714Y-88866247D02*
X151005714Y-89104342D01*
X151005714Y-89104342D02*
X150958095Y-89199580D01*
X150958095Y-89199580D02*
X150910476Y-89247200D01*
X150910476Y-89247200D02*
X150815238Y-89294819D01*
X150815238Y-89294819D02*
X150577143Y-89294819D01*
X150577143Y-89294819D02*
X150481905Y-89247200D01*
X150481905Y-89247200D02*
X150434286Y-89199580D01*
X150053333Y-86144819D02*
X149720000Y-85668628D01*
X149481905Y-86144819D02*
X149481905Y-85144819D01*
X149481905Y-85144819D02*
X149862857Y-85144819D01*
X149862857Y-85144819D02*
X149958095Y-85192438D01*
X149958095Y-85192438D02*
X150005714Y-85240057D01*
X150005714Y-85240057D02*
X150053333Y-85335295D01*
X150053333Y-85335295D02*
X150053333Y-85478152D01*
X150053333Y-85478152D02*
X150005714Y-85573390D01*
X150005714Y-85573390D02*
X149958095Y-85621009D01*
X149958095Y-85621009D02*
X149862857Y-85668628D01*
X149862857Y-85668628D02*
X149481905Y-85668628D01*
X150910476Y-85478152D02*
X150910476Y-86144819D01*
X150672381Y-85097200D02*
X150434286Y-85811485D01*
X150434286Y-85811485D02*
X151053333Y-85811485D01*
X150053333Y-82994819D02*
X149720000Y-82518628D01*
X149481905Y-82994819D02*
X149481905Y-81994819D01*
X149481905Y-81994819D02*
X149862857Y-81994819D01*
X149862857Y-81994819D02*
X149958095Y-82042438D01*
X149958095Y-82042438D02*
X150005714Y-82090057D01*
X150005714Y-82090057D02*
X150053333Y-82185295D01*
X150053333Y-82185295D02*
X150053333Y-82328152D01*
X150053333Y-82328152D02*
X150005714Y-82423390D01*
X150005714Y-82423390D02*
X149958095Y-82471009D01*
X149958095Y-82471009D02*
X149862857Y-82518628D01*
X149862857Y-82518628D02*
X149481905Y-82518628D01*
X150386667Y-81994819D02*
X151005714Y-81994819D01*
X151005714Y-81994819D02*
X150672381Y-82375771D01*
X150672381Y-82375771D02*
X150815238Y-82375771D01*
X150815238Y-82375771D02*
X150910476Y-82423390D01*
X150910476Y-82423390D02*
X150958095Y-82471009D01*
X150958095Y-82471009D02*
X151005714Y-82566247D01*
X151005714Y-82566247D02*
X151005714Y-82804342D01*
X151005714Y-82804342D02*
X150958095Y-82899580D01*
X150958095Y-82899580D02*
X150910476Y-82947200D01*
X150910476Y-82947200D02*
X150815238Y-82994819D01*
X150815238Y-82994819D02*
X150529524Y-82994819D01*
X150529524Y-82994819D02*
X150434286Y-82947200D01*
X150434286Y-82947200D02*
X150386667Y-82899580D01*
X150053333Y-79844819D02*
X149720000Y-79368628D01*
X149481905Y-79844819D02*
X149481905Y-78844819D01*
X149481905Y-78844819D02*
X149862857Y-78844819D01*
X149862857Y-78844819D02*
X149958095Y-78892438D01*
X149958095Y-78892438D02*
X150005714Y-78940057D01*
X150005714Y-78940057D02*
X150053333Y-79035295D01*
X150053333Y-79035295D02*
X150053333Y-79178152D01*
X150053333Y-79178152D02*
X150005714Y-79273390D01*
X150005714Y-79273390D02*
X149958095Y-79321009D01*
X149958095Y-79321009D02*
X149862857Y-79368628D01*
X149862857Y-79368628D02*
X149481905Y-79368628D01*
X150434286Y-78940057D02*
X150481905Y-78892438D01*
X150481905Y-78892438D02*
X150577143Y-78844819D01*
X150577143Y-78844819D02*
X150815238Y-78844819D01*
X150815238Y-78844819D02*
X150910476Y-78892438D01*
X150910476Y-78892438D02*
X150958095Y-78940057D01*
X150958095Y-78940057D02*
X151005714Y-79035295D01*
X151005714Y-79035295D02*
X151005714Y-79130533D01*
X151005714Y-79130533D02*
X150958095Y-79273390D01*
X150958095Y-79273390D02*
X150386667Y-79844819D01*
X150386667Y-79844819D02*
X151005714Y-79844819D01*
X150053333Y-76694819D02*
X149720000Y-76218628D01*
X149481905Y-76694819D02*
X149481905Y-75694819D01*
X149481905Y-75694819D02*
X149862857Y-75694819D01*
X149862857Y-75694819D02*
X149958095Y-75742438D01*
X149958095Y-75742438D02*
X150005714Y-75790057D01*
X150005714Y-75790057D02*
X150053333Y-75885295D01*
X150053333Y-75885295D02*
X150053333Y-76028152D01*
X150053333Y-76028152D02*
X150005714Y-76123390D01*
X150005714Y-76123390D02*
X149958095Y-76171009D01*
X149958095Y-76171009D02*
X149862857Y-76218628D01*
X149862857Y-76218628D02*
X149481905Y-76218628D01*
X151005714Y-76694819D02*
X150434286Y-76694819D01*
X150720000Y-76694819D02*
X150720000Y-75694819D01*
X150720000Y-75694819D02*
X150624762Y-75837676D01*
X150624762Y-75837676D02*
X150529524Y-75932914D01*
X150529524Y-75932914D02*
X150434286Y-75980533D01*
D11*
%TO.C,U3*%
X147845947Y-101319000D02*
X150593253Y-101319000D01*
X150593253Y-96315200D02*
X147845947Y-96315200D01*
X148914800Y-96315200D02*
G75*
G03*
X149524400Y-96315200I304800J0D01*
G01*
D12*
%TO.C,C4*%
X121492500Y-99545000D02*
X121492500Y-99990000D01*
X127732500Y-99545000D02*
X127732500Y-99990000D01*
X127732500Y-97250000D02*
X127732500Y-97695000D01*
X121492500Y-97250000D02*
X127732500Y-97250000D01*
X121492500Y-97250000D02*
X121492500Y-97695000D01*
X121492500Y-99990000D02*
X127732500Y-99990000D01*
%TO.C,C3*%
X121492500Y-89995000D02*
X121492500Y-90440000D01*
X127732500Y-89995000D02*
X127732500Y-90440000D01*
X127732500Y-87700000D02*
X127732500Y-88145000D01*
X121492500Y-87700000D02*
X127732500Y-87700000D01*
X121492500Y-87700000D02*
X121492500Y-88145000D01*
X121492500Y-90440000D02*
X127732500Y-90440000D01*
%TO.C,C1*%
X121492500Y-80445000D02*
X121492500Y-80890000D01*
X127732500Y-80445000D02*
X127732500Y-80890000D01*
X127732500Y-78150000D02*
X127732500Y-78595000D01*
X121492500Y-78150000D02*
X127732500Y-78150000D01*
X121492500Y-78150000D02*
X121492500Y-78595000D01*
X121492500Y-80890000D02*
X127732500Y-80890000D01*
%TO.C,R11*%
X135842500Y-89840000D02*
X135842500Y-88000000D01*
X135842500Y-88000000D02*
X132002500Y-88000000D01*
X132002500Y-89840000D02*
X135842500Y-89840000D01*
X136792500Y-88920000D02*
X135842500Y-88920000D01*
X132002500Y-88000000D02*
X132002500Y-89840000D01*
X131052500Y-88920000D02*
X132002500Y-88920000D01*
%TO.C,R10*%
X135842500Y-86690000D02*
X135842500Y-84850000D01*
X135842500Y-84850000D02*
X132002500Y-84850000D01*
X132002500Y-86690000D02*
X135842500Y-86690000D01*
X136792500Y-85770000D02*
X135842500Y-85770000D01*
X132002500Y-84850000D02*
X132002500Y-86690000D01*
X131052500Y-85770000D02*
X132002500Y-85770000D01*
%TO.C,R9*%
X135842500Y-83540000D02*
X135842500Y-81700000D01*
X135842500Y-81700000D02*
X132002500Y-81700000D01*
X132002500Y-83540000D02*
X135842500Y-83540000D01*
X136792500Y-82620000D02*
X135842500Y-82620000D01*
X132002500Y-81700000D02*
X132002500Y-83540000D01*
X131052500Y-82620000D02*
X132002500Y-82620000D01*
%TO.C,R8*%
X135842500Y-80390000D02*
X135842500Y-78550000D01*
X135842500Y-78550000D02*
X132002500Y-78550000D01*
X132002500Y-80390000D02*
X135842500Y-80390000D01*
X136792500Y-79470000D02*
X135842500Y-79470000D01*
X132002500Y-78550000D02*
X132002500Y-80390000D01*
X131052500Y-79470000D02*
X132002500Y-79470000D01*
%TO.C,R7*%
X135842500Y-77240000D02*
X135842500Y-75400000D01*
X135842500Y-75400000D02*
X132002500Y-75400000D01*
X132002500Y-77240000D02*
X135842500Y-77240000D01*
X136792500Y-76320000D02*
X135842500Y-76320000D01*
X132002500Y-75400000D02*
X132002500Y-77240000D01*
X131052500Y-76320000D02*
X132002500Y-76320000D01*
%TO.C,C7*%
X130781248Y-98325000D02*
X131303752Y-98325000D01*
X130781248Y-99795000D02*
X131303752Y-99795000D01*
%TO.C,C6*%
X130781248Y-95315000D02*
X131303752Y-95315000D01*
X130781248Y-96785000D02*
X131303752Y-96785000D01*
%TO.C,C5*%
X146848748Y-102665000D02*
X147371252Y-102665000D01*
X146848748Y-104135000D02*
X147371252Y-104135000D01*
%TO.C,C2*%
X129592500Y-93445000D02*
X129592500Y-93890000D01*
X135832500Y-93445000D02*
X135832500Y-93890000D01*
X135832500Y-91150000D02*
X135832500Y-91595000D01*
X129592500Y-91150000D02*
X135832500Y-91150000D01*
X129592500Y-91150000D02*
X129592500Y-91595000D01*
X129592500Y-93890000D02*
X135832500Y-93890000D01*
%TO.C,U4*%
X159040000Y-97730000D02*
X159040000Y-108010000D01*
X163540000Y-97730000D02*
X162290000Y-97730000D01*
X159040000Y-108010000D02*
X163540000Y-108010000D01*
X163540000Y-108010000D02*
X163540000Y-97730000D01*
X160290000Y-97730000D02*
X159040000Y-97730000D01*
X160290000Y-97730000D02*
G75*
G03*
X162290000Y-97730000I1000000J0D01*
G01*
%TO.C,U2*%
X165530000Y-89510000D02*
X159110000Y-89510000D01*
X159110000Y-89510000D02*
X159110000Y-89780000D01*
X159110000Y-89780000D02*
X156280000Y-89780000D01*
X165530000Y-96410000D02*
X159110000Y-96410000D01*
X159110000Y-96410000D02*
X159110000Y-96140000D01*
X159110000Y-96140000D02*
X158010000Y-96140000D01*
%TO.C,U1*%
X162905000Y-77560000D02*
X161405000Y-77560000D01*
X161405000Y-77560000D02*
X161405000Y-79370000D01*
X161405000Y-79370000D02*
X156280000Y-79370000D01*
X162905000Y-87960000D02*
X161405000Y-87960000D01*
X161405000Y-87960000D02*
X161405000Y-86150000D01*
X161405000Y-86150000D02*
X160305000Y-86150000D01*
%TO.C,R6*%
X152140000Y-94830000D02*
X152140000Y-92990000D01*
X152140000Y-92990000D02*
X148300000Y-92990000D01*
X148300000Y-94830000D02*
X152140000Y-94830000D01*
X153090000Y-93910000D02*
X152140000Y-93910000D01*
X148300000Y-92990000D02*
X148300000Y-94830000D01*
X147350000Y-93910000D02*
X148300000Y-93910000D01*
%TO.C,R5*%
X152140000Y-91680000D02*
X152140000Y-89840000D01*
X152140000Y-89840000D02*
X148300000Y-89840000D01*
X148300000Y-91680000D02*
X152140000Y-91680000D01*
X153090000Y-90760000D02*
X152140000Y-90760000D01*
X148300000Y-89840000D02*
X148300000Y-91680000D01*
X147350000Y-90760000D02*
X148300000Y-90760000D01*
%TO.C,R4*%
X152140000Y-88530000D02*
X152140000Y-86690000D01*
X152140000Y-86690000D02*
X148300000Y-86690000D01*
X148300000Y-88530000D02*
X152140000Y-88530000D01*
X153090000Y-87610000D02*
X152140000Y-87610000D01*
X148300000Y-86690000D02*
X148300000Y-88530000D01*
X147350000Y-87610000D02*
X148300000Y-87610000D01*
%TO.C,R3*%
X152140000Y-85380000D02*
X152140000Y-83540000D01*
X152140000Y-83540000D02*
X148300000Y-83540000D01*
X148300000Y-85380000D02*
X152140000Y-85380000D01*
X153090000Y-84460000D02*
X152140000Y-84460000D01*
X148300000Y-83540000D02*
X148300000Y-85380000D01*
X147350000Y-84460000D02*
X148300000Y-84460000D01*
%TO.C,R2*%
X152140000Y-82230000D02*
X152140000Y-80390000D01*
X152140000Y-80390000D02*
X148300000Y-80390000D01*
X148300000Y-82230000D02*
X152140000Y-82230000D01*
X153090000Y-81310000D02*
X152140000Y-81310000D01*
X148300000Y-80390000D02*
X148300000Y-82230000D01*
X147350000Y-81310000D02*
X148300000Y-81310000D01*
%TO.C,R1*%
X152140000Y-79080000D02*
X152140000Y-77240000D01*
X152140000Y-77240000D02*
X148300000Y-77240000D01*
X148300000Y-79080000D02*
X152140000Y-79080000D01*
X153090000Y-78160000D02*
X152140000Y-78160000D01*
X148300000Y-77240000D02*
X148300000Y-79080000D01*
X147350000Y-78160000D02*
X148300000Y-78160000D01*
%TD*%
M02*
