%TF.GenerationSoftware,KiCad,Pcbnew,7.0.8*%
%TF.CreationDate,2023-11-23T11:48:21-03:00*%
%TF.ProjectId,design,64657369-676e-42e6-9b69-6361645f7063,rev?*%
%TF.SameCoordinates,Original*%
%TF.FileFunction,Copper,L1,Top*%
%TF.FilePolarity,Positive*%
%FSLAX46Y46*%
G04 Gerber Fmt 4.6, Leading zero omitted, Abs format (unit mm)*
G04 Created by KiCad (PCBNEW 7.0.8) date 2023-11-23 11:48:21*
%MOMM*%
%LPD*%
G01*
G04 APERTURE LIST*
G04 Aperture macros list*
%AMRoundRect*
0 Rectangle with rounded corners*
0 $1 Rounding radius*
0 $2 $3 $4 $5 $6 $7 $8 $9 X,Y pos of 4 corners*
0 Add a 4 corners polygon primitive as box body*
4,1,4,$2,$3,$4,$5,$6,$7,$8,$9,$2,$3,0*
0 Add four circle primitives for the rounded corners*
1,1,$1+$1,$2,$3*
1,1,$1+$1,$4,$5*
1,1,$1+$1,$6,$7*
1,1,$1+$1,$8,$9*
0 Add four rect primitives between the rounded corners*
20,1,$1+$1,$2,$3,$4,$5,0*
20,1,$1+$1,$4,$5,$6,$7,0*
20,1,$1+$1,$6,$7,$8,$9,0*
20,1,$1+$1,$8,$9,$2,$3,0*%
G04 Aperture macros list end*
%TA.AperFunction,SMDPad,CuDef*%
%ADD10R,1.981200X0.558800*%
%TD*%
%TA.AperFunction,ComponentPad*%
%ADD11C,1.600000*%
%TD*%
%TA.AperFunction,ComponentPad*%
%ADD12C,1.400000*%
%TD*%
%TA.AperFunction,ComponentPad*%
%ADD13O,1.400000X1.400000*%
%TD*%
%TA.AperFunction,SMDPad,CuDef*%
%ADD14RoundRect,0.250000X-0.337500X-0.475000X0.337500X-0.475000X0.337500X0.475000X-0.337500X0.475000X0*%
%TD*%
%TA.AperFunction,ComponentPad*%
%ADD15R,2.400000X1.600000*%
%TD*%
%TA.AperFunction,ComponentPad*%
%ADD16O,2.400000X1.600000*%
%TD*%
%TA.AperFunction,SMDPad,CuDef*%
%ADD17RoundRect,0.250000X-0.850000X-0.350000X0.850000X-0.350000X0.850000X0.350000X-0.850000X0.350000X0*%
%TD*%
%TA.AperFunction,SMDPad,CuDef*%
%ADD18RoundRect,0.249997X-2.950003X-2.650003X2.950003X-2.650003X2.950003X2.650003X-2.950003X2.650003X0*%
%TD*%
%TA.AperFunction,SMDPad,CuDef*%
%ADD19RoundRect,0.250000X-1.275000X-1.125000X1.275000X-1.125000X1.275000X1.125000X-1.275000X1.125000X0*%
%TD*%
%TA.AperFunction,SMDPad,CuDef*%
%ADD20RoundRect,0.250000X-2.050000X-0.300000X2.050000X-0.300000X2.050000X0.300000X-2.050000X0.300000X0*%
%TD*%
%TA.AperFunction,SMDPad,CuDef*%
%ADD21RoundRect,0.250002X-4.449998X-5.149998X4.449998X-5.149998X4.449998X5.149998X-4.449998X5.149998X0*%
%TD*%
%TA.AperFunction,SMDPad,CuDef*%
%ADD22RoundRect,0.250000X-2.025000X-2.375000X2.025000X-2.375000X2.025000X2.375000X-2.025000X2.375000X0*%
%TD*%
G04 APERTURE END LIST*
D10*
%TO.P,U3,1,NC*%
%TO.N,unconnected-(U3-NC-Pad1)*%
X146755800Y-96912100D03*
%TO.P,U3,2,IN-*%
%TO.N,load*%
X146755800Y-98182100D03*
%TO.P,U3,3,IN+*%
%TO.N,Earth*%
X146755800Y-99452100D03*
%TO.P,U3,4,V-*%
%TO.N,-12V*%
X146755800Y-100722100D03*
%TO.P,U3,5,NC*%
%TO.N,unconnected-(U3-NC-Pad5)*%
X151683400Y-100722100D03*
%TO.P,U3,6,OUT*%
%TO.N,Net-(U3-OUT)*%
X151683400Y-99452100D03*
%TO.P,U3,7,V+*%
%TO.N,+12V*%
X151683400Y-98182100D03*
%TO.P,U3,8,NC*%
%TO.N,unconnected-(U3-NC-Pad8)*%
X151683400Y-96912100D03*
%TD*%
D11*
%TO.P,C4,1*%
%TO.N,+12V*%
X122112500Y-98620000D03*
%TO.P,C4,2*%
%TO.N,Earth*%
X127112500Y-98620000D03*
%TD*%
%TO.P,C3,1*%
%TO.N,Net-(U1-VI)*%
X122112500Y-89070000D03*
%TO.P,C3,2*%
%TO.N,Earth*%
X127112500Y-89070000D03*
%TD*%
%TO.P,C1,1*%
%TO.N,-12V*%
X122112500Y-79520000D03*
%TO.P,C1,2*%
%TO.N,Earth*%
X127112500Y-79520000D03*
%TD*%
D12*
%TO.P,R11,1*%
%TO.N,Net-(J3-Pin_1)*%
X130112500Y-88920000D03*
D13*
%TO.P,R11,2*%
%TO.N,Net-(U4B--)*%
X137732500Y-88920000D03*
%TD*%
D12*
%TO.P,R10,1*%
%TO.N,Net-(U4B--)*%
X130112500Y-85770000D03*
D13*
%TO.P,R10,2*%
%TO.N,Net-(U3-OUT)*%
X137732500Y-85770000D03*
%TD*%
D12*
%TO.P,R9,1*%
%TO.N,Net-(R7-Pad1)*%
X130112500Y-82620000D03*
D13*
%TO.P,R9,2*%
%TO.N,Earth*%
X137732500Y-82620000D03*
%TD*%
D12*
%TO.P,R8,1*%
%TO.N,Net-(U3-OUT)*%
X130112500Y-79470000D03*
D13*
%TO.P,R8,2*%
%TO.N,Net-(R7-Pad1)*%
X137732500Y-79470000D03*
%TD*%
D12*
%TO.P,R7,1*%
%TO.N,Net-(R7-Pad1)*%
X130112500Y-76320000D03*
D13*
%TO.P,R7,2*%
%TO.N,load*%
X137732500Y-76320000D03*
%TD*%
D14*
%TO.P,C7,1*%
%TO.N,-12V*%
X130005000Y-99060000D03*
%TO.P,C7,2*%
%TO.N,Earth*%
X132080000Y-99060000D03*
%TD*%
%TO.P,C6,1*%
%TO.N,+12V*%
X130005000Y-96050000D03*
%TO.P,C6,2*%
%TO.N,Earth*%
X132080000Y-96050000D03*
%TD*%
%TO.P,C5,1*%
%TO.N,load*%
X146072500Y-103400000D03*
%TO.P,C5,2*%
%TO.N,Earth*%
X148147500Y-103400000D03*
%TD*%
D11*
%TO.P,C2,1*%
%TO.N,Net-(U2-IN)*%
X130212500Y-92520000D03*
%TO.P,C2,2*%
%TO.N,Earth*%
X135212500Y-92520000D03*
%TD*%
D15*
%TO.P,U4,1*%
%TO.N,Net-(R3-Pad2)*%
X157480000Y-99060000D03*
D16*
%TO.P,U4,2,-*%
%TO.N,Net-(U4A--)*%
X157480000Y-101600000D03*
%TO.P,U4,3,+*%
%TO.N,load*%
X157480000Y-104140000D03*
%TO.P,U4,4*%
%TO.N,N/C*%
X157480000Y-106680000D03*
%TO.P,U4,5,+*%
%TO.N,Earth*%
X165100000Y-106680000D03*
%TO.P,U4,6,-*%
%TO.N,Net-(U4B--)*%
X165100000Y-104140000D03*
%TO.P,U4,7*%
%TO.N,Net-(J3-Pin_1)*%
X165100000Y-101600000D03*
%TO.P,U4,8*%
%TO.N,N/C*%
X165100000Y-99060000D03*
%TD*%
D17*
%TO.P,U2,1,IN*%
%TO.N,Net-(U2-IN)*%
X157380000Y-90680000D03*
%TO.P,U2,2,GND*%
%TO.N,Earth*%
X157380000Y-92960000D03*
%TO.P,U2,3,OUT*%
%TO.N,+12V*%
X157380000Y-95240000D03*
D18*
%TO.P,U2,2,GND*%
%TO.N,Earth*%
X163680000Y-92960000D03*
D19*
X165355000Y-94485000D03*
X162005000Y-91435000D03*
X165355000Y-91435000D03*
X162005000Y-94485000D03*
%TD*%
D20*
%TO.P,U1,1,GND*%
%TO.N,Earth*%
X158580000Y-80220000D03*
%TO.P,U1,2,VI*%
%TO.N,Net-(U1-VI)*%
X158580000Y-82760000D03*
%TO.P,U1,3,VO*%
%TO.N,-12V*%
X158580000Y-85300000D03*
D21*
%TO.P,U1,2,VI*%
%TO.N,Net-(U1-VI)*%
X167730000Y-82760000D03*
D22*
X170155000Y-85535000D03*
X165305000Y-79985000D03*
X170155000Y-79985000D03*
X165305000Y-85535000D03*
%TD*%
D12*
%TO.P,R6,1*%
%TO.N,load*%
X146410000Y-93910000D03*
D13*
%TO.P,R6,2*%
%TO.N,Net-(J2-Pin_2)*%
X154030000Y-93910000D03*
%TD*%
D12*
%TO.P,R5,1*%
%TO.N,Earth*%
X146410000Y-90760000D03*
D13*
%TO.P,R5,2*%
%TO.N,Net-(U4A--)*%
X154030000Y-90760000D03*
%TD*%
D12*
%TO.P,R4,1*%
%TO.N,Net-(U4A--)*%
X146410000Y-87610000D03*
D13*
%TO.P,R4,2*%
%TO.N,Net-(R3-Pad2)*%
X154030000Y-87610000D03*
%TD*%
D12*
%TO.P,R3,1*%
%TO.N,load*%
X146410000Y-84460000D03*
D13*
%TO.P,R3,2*%
%TO.N,Net-(R3-Pad2)*%
X154030000Y-84460000D03*
%TD*%
D12*
%TO.P,R2,1*%
%TO.N,Net-(J1-Pin_3)*%
X146410000Y-81310000D03*
D13*
%TO.P,R2,2*%
%TO.N,Net-(U2-IN)*%
X154030000Y-81310000D03*
%TD*%
D12*
%TO.P,R1,1*%
%TO.N,Net-(U1-VI)*%
X146410000Y-78160000D03*
D13*
%TO.P,R1,2*%
%TO.N,Net-(J1-Pin_1)*%
X154030000Y-78160000D03*
%TD*%
M02*
